<?xml version="1.0" encoding="UTF-8" standalone="no"?>
<!-- Created with Inkscape (http://www.inkscape.org/) -->

<svg
   xmlns:osb="http://www.openswatchbook.org/uri/2009/osb"
   xmlns:dc="http://purl.org/dc/elements/1.1/"
   xmlns:cc="http://creativecommons.org/ns#"
   xmlns:rdf="http://www.w3.org/1999/02/22-rdf-syntax-ns#"
   xmlns:svg="http://www.w3.org/2000/svg"
   xmlns="http://www.w3.org/2000/svg"
   xmlns:sodipodi="http://sodipodi.sourceforge.net/DTD/sodipodi-0.dtd"
   xmlns:inkscape="http://www.inkscape.org/namespaces/inkscape"
   width="8.4666662cm"
   height="8.6199999cm"
   id="svg2"
   version="1.1"
   inkscape:version="0.92.3 (unknown)"
   sodipodi:docname="surfaces.svg"
   inkscape:export-filename="/home/vanderlei/Documents/use-the-disturbance/manuscript/figures/surfaces.png"
   inkscape:export-xdpi="600"
   inkscape:export-ydpi="600">
  <sodipodi:namedview
     id="base"
     pagecolor="#ffffff"
     bordercolor="#666666"
     borderopacity="1.0"
     inkscape:pageopacity="0.0"
     inkscape:pageshadow="2"
     inkscape:zoom="1.4998038"
     inkscape:cx="159.99999"
     inkscape:cy="200.69291"
     inkscape:document-units="pc"
     inkscape:current-layer="layer1"
     showgrid="false"
     units="cm"
     inkscape:window-width="1301"
     inkscape:window-height="744"
     inkscape:window-x="65"
     inkscape:window-y="24"
     inkscape:window-maximized="1"
     showguides="true"
     inkscape:guide-bbox="true" />
  <defs
     id="defs4">
    <marker
       style="overflow:visible"
       id="Arrow2Mstart"
       refX="0"
       refY="0"
       orient="auto"
       inkscape:stockid="Arrow2Mstart">
      <path
         inkscape:connector-curvature="0"
         transform="scale(0.6)"
         d="M 8.7185878,4.0337352 -2.2072895,0.01601326 8.7185884,-4.0017078 c -1.7454984,2.3720609 -1.7354408,5.6174519 -6e-7,8.035443 z"
         style="fill-rule:evenodd;stroke-width:0.625;stroke-linejoin:round"
         id="path4615" />
    </marker>
    <marker
       style="overflow:visible"
       id="Arrow2Sstart"
       refX="0"
       refY="0"
       orient="auto"
       inkscape:stockid="Arrow2Sstart">
      <path
         inkscape:connector-curvature="0"
         transform="matrix(0.3,0,0,0.3,-0.69,0)"
         d="M 8.7185878,4.0337352 -2.2072895,0.01601326 8.7185884,-4.0017078 c -1.7454984,2.3720609 -1.7354408,5.6174519 -6e-7,8.035443 z"
         style="fill-rule:evenodd;stroke-width:0.625;stroke-linejoin:round"
         id="path4621" />
    </marker>
    <linearGradient
       osb:paint="gradient"
       id="linearGradient4166">
      <stop
         id="stop4168"
         offset="0"
         style="stop-color:#b3b3b3;stop-opacity:1;" />
      <stop
         id="stop4170"
         offset="1"
         style="stop-color:#b3b3b3;stop-opacity:0;" />
    </linearGradient>
    <inkscape:path-effect
       is_visible="true"
       id="path-effect3231"
       effect="spiro" />
    <inkscape:path-effect
       fuse_tolerance="0"
       vertical_pattern="false"
       prop_units="false"
       tang_offset="0"
       normal_offset="0"
       spacing="0"
       scale_y_rel="false"
       prop_scale="1"
       copytype="single_stretched"
       pattern="M 0,0 V 10 L 10,5 Z"
       is_visible="true"
       id="path-effect3227"
       effect="skeletal" />
    <inkscape:path-effect
       is_visible="true"
       id="path-effect3225"
       effect="spiro" />
    <inkscape:path-effect
       fuse_tolerance="0"
       vertical_pattern="false"
       prop_units="false"
       tang_offset="0"
       normal_offset="0"
       spacing="0"
       scale_y_rel="false"
       prop_scale="1"
       copytype="single_stretched"
       pattern="M 0,5 C 0,2.24 2.24,0 5,0 7.76,0 10,2.24 10,5 10,7.76 7.76,10 5,10 2.24,10 0,7.76 0,5 Z"
       is_visible="true"
       id="path-effect3221"
       effect="skeletal" />
    <inkscape:path-effect
       is_visible="true"
       id="path-effect3219"
       effect="spiro" />
    <inkscape:path-effect
       is_visible="true"
       id="path-effect3215"
       effect="spiro" />
    <inkscape:path-effect
       is_visible="true"
       id="path-effect11108"
       effect="spiro" />
    <inkscape:path-effect
       is_visible="true"
       id="path-effect11104"
       effect="spiro" />
    <inkscape:path-effect
       is_visible="true"
       id="path-effect11067"
       effect="spiro" />
    <inkscape:path-effect
       is_visible="true"
       id="path-effect11042"
       effect="spiro" />
    <inkscape:path-effect
       is_visible="true"
       id="path-effect9745"
       effect="spiro" />
    <marker
       style="overflow:visible"
       id="Arrow1Send"
       refX="0"
       refY="0"
       orient="auto"
       inkscape:stockid="Arrow1Send">
      <path
         inkscape:connector-curvature="0"
         transform="matrix(-0.2,0,0,-0.2,-1.2,0)"
         style="fill-rule:evenodd;stroke:#000000;stroke-width:1.00000003pt"
         d="M 0,0 5,-5 -12.5,0 5,5 Z"
         id="path4930" />
    </marker>
    <marker
       style="overflow:visible"
       id="Arrow2Mend"
       refX="0"
       refY="0"
       orient="auto"
       inkscape:stockid="Arrow2Mend">
      <path
         inkscape:connector-curvature="0"
         transform="scale(-0.6)"
         d="M 8.7185878,4.0337352 -2.2072895,0.01601326 8.7185884,-4.0017078 c -1.7454984,2.3720609 -1.7354408,5.6174519 -6e-7,8.035443 z"
         style="fill-rule:evenodd;stroke-width:0.625;stroke-linejoin:round"
         id="path4942" />
    </marker>
    <inkscape:path-effect
       is_visible="true"
       id="path-effect4117"
       effect="spiro" />
    <inkscape:path-effect
       is_visible="true"
       id="path-effect3177"
       effect="spiro" />
    <inkscape:path-effect
       is_visible="true"
       id="path-effect6441"
       effect="spiro" />
    <inkscape:path-effect
       is_visible="true"
       id="path-effect6433"
       effect="spiro" />
    <inkscape:path-effect
       is_visible="true"
       id="path-effect6390"
       effect="spiro" />
    <inkscape:path-effect
       is_visible="true"
       id="path-effect6319"
       effect="spiro" />
    <inkscape:path-effect
       is_visible="true"
       id="path-effect6315"
       effect="spiro" />
    <inkscape:path-effect
       is_visible="true"
       id="path-effect6293"
       effect="spiro" />
    <inkscape:path-effect
       is_visible="true"
       id="path-effect6289"
       effect="spiro" />
    <inkscape:path-effect
       is_visible="true"
       id="path-effect6285"
       effect="spiro" />
    <inkscape:path-effect
       is_visible="true"
       id="path-effect5594"
       effect="spiro" />
    <inkscape:path-effect
       is_visible="true"
       id="path-effect5590"
       effect="spiro" />
    <marker
       style="overflow:visible"
       id="StopS"
       refX="0"
       refY="0"
       orient="auto"
       inkscape:stockid="StopS">
      <path
         inkscape:connector-curvature="0"
         transform="scale(0.2)"
         style="fill:none;stroke:#000000;stroke-width:1.00000003pt"
         d="M 0,5.65 V -5.65"
         id="path4319" />
    </marker>
    <marker
       style="overflow:visible"
       id="StopL"
       refX="0"
       refY="0"
       orient="auto"
       inkscape:stockid="StopL">
      <path
         inkscape:connector-curvature="0"
         transform="scale(0.8)"
         style="fill:none;stroke:#000000;stroke-width:1.00000003pt"
         d="M 0,5.65 V -5.65"
         id="path4313" />
    </marker>
    <marker
       inkscape:stockid="DistanceStart"
       orient="auto"
       refY="0"
       refX="0"
       id="DistanceStart"
       style="overflow:visible">
      <g
         id="g2300">
        <path
           inkscape:connector-curvature="0"
           id="path2306"
           d="M 0,0 H 2"
           style="fill:none;stroke:#ffffff;stroke-width:1.14999998;stroke-linecap:square" />
        <path
           inkscape:connector-curvature="0"
           id="path2302"
           d="M 0,0 13,4 9,0 13,-4 Z"
           style="fill:#000000;fill-rule:evenodd;stroke:none" />
        <path
           inkscape:connector-curvature="0"
           id="path2304"
           d="M 0,-4 V 40"
           style="fill:none;stroke:#000000;stroke-width:1;stroke-linecap:square" />
      </g>
    </marker>
    <marker
       style="overflow:visible"
       id="Arrow1Mend"
       refX="0"
       refY="0"
       orient="auto"
       inkscape:stockid="Arrow1Mend">
      <path
         inkscape:connector-curvature="0"
         transform="matrix(-0.4,0,0,-0.4,-4,0)"
         style="fill-rule:evenodd;stroke:#000000;stroke-width:1.00000003pt"
         d="M 0,0 5,-5 -12.5,0 5,5 Z"
         id="path4153" />
    </marker>
    <inkscape:path-effect
       is_visible="true"
       id="path-effect3944"
       effect="spiro" />
    <inkscape:path-effect
       is_visible="true"
       id="path-effect3877"
       effect="spiro" />
    <inkscape:path-effect
       is_visible="true"
       id="path-effect3873"
       effect="spiro" />
    <inkscape:path-effect
       is_visible="true"
       id="path-effect3033"
       effect="spiro" />
    <inkscape:path-effect
       is_visible="true"
       id="path-effect4032"
       effect="spiro" />
    <marker
       style="overflow:visible"
       id="Arrow2Lend"
       refX="0"
       refY="0"
       orient="auto"
       inkscape:stockid="Arrow2Lend">
      <path
         inkscape:connector-curvature="0"
         transform="matrix(-1.1,0,0,-1.1,-1.1,0)"
         d="M 8.7185878,4.0337352 -2.2072895,0.01601326 8.7185884,-4.0017078 c -1.7454984,2.3720609 -1.7354408,5.6174519 -6e-7,8.035443 z"
         style="fill-rule:evenodd;stroke-width:0.625;stroke-linejoin:round"
         id="path3800" />
    </marker>
    <marker
       style="overflow:visible"
       id="Arrow2Lstart"
       refX="0"
       refY="0"
       orient="auto"
       inkscape:stockid="Arrow2Lstart">
      <path
         inkscape:connector-curvature="0"
         transform="matrix(1.1,0,0,1.1,1.1,0)"
         d="M 8.7185878,4.0337352 -2.2072895,0.01601326 8.7185884,-4.0017078 c -1.7454984,2.3720609 -1.7354408,5.6174519 -6e-7,8.035443 z"
         style="fill-rule:evenodd;stroke-width:0.625;stroke-linejoin:round"
         id="path3797" />
    </marker>
    <marker
       style="overflow:visible"
       id="Arrow1Mstart"
       refX="0"
       refY="0"
       orient="auto"
       inkscape:stockid="Arrow1Mstart">
      <path
         inkscape:connector-curvature="0"
         transform="matrix(0.4,0,0,0.4,4,0)"
         style="fill-rule:evenodd;stroke:#000000;stroke-width:1.00000003pt"
         d="M 0,0 5,-5 -12.5,0 5,5 Z"
         id="path3785" />
    </marker>
    <marker
       style="overflow:visible"
       id="Arrow1Lend"
       refX="0"
       refY="0"
       orient="auto"
       inkscape:stockid="Arrow1Lend">
      <path
         inkscape:connector-curvature="0"
         transform="matrix(-0.8,0,0,-0.8,-10,0)"
         style="fill-rule:evenodd;stroke:#000000;stroke-width:1.00000003pt"
         d="M 0,0 5,-5 -12.5,0 5,5 Z"
         id="path3782" />
    </marker>
    <marker
       style="overflow:visible"
       id="Arrow1Lstart"
       refX="0"
       refY="0"
       orient="auto"
       inkscape:stockid="Arrow1Lstart">
      <path
         inkscape:connector-curvature="0"
         transform="matrix(0.8,0,0,0.8,10,0)"
         style="fill-rule:evenodd;stroke:#000000;stroke-width:1.00000003pt"
         d="M 0,0 5,-5 -12.5,0 5,5 Z"
         id="path3779" />
    </marker>
    <inkscape:path-effect
       is_visible="true"
       id="path-effect3773"
       effect="spiro" />
    <inkscape:path-effect
       is_visible="true"
       id="path-effect3761"
       effect="spiro" />
    <inkscape:path-effect
       is_visible="true"
       id="path-effect3757"
       effect="spiro" />
    <marker
       style="overflow:visible"
       id="Arrow2Lstart-1"
       refX="0"
       refY="0"
       orient="auto"
       inkscape:stockid="Arrow2Lstart">
      <path
         transform="matrix(1.1,0,0,1.1,1.1,0)"
         d="M 8.7185878,4.0337352 -2.2072895,0.01601326 8.7185884,-4.0017078 c -1.7454984,2.3720609 -1.7354408,5.6174519 -6e-7,8.035443 z"
         style="fill-rule:evenodd;stroke-width:0.625;stroke-linejoin:round"
         id="path3797-7"
         inkscape:connector-curvature="0" />
    </marker>
    <marker
       style="overflow:visible"
       id="Arrow2Lend-4"
       refX="0"
       refY="0"
       orient="auto"
       inkscape:stockid="Arrow2Lend">
      <path
         transform="matrix(-1.1,0,0,-1.1,-1.1,0)"
         d="M 8.7185878,4.0337352 -2.2072895,0.01601326 8.7185884,-4.0017078 c -1.7454984,2.3720609 -1.7354408,5.6174519 -6e-7,8.035443 z"
         style="fill-rule:evenodd;stroke-width:0.625;stroke-linejoin:round"
         id="path3800-0"
         inkscape:connector-curvature="0" />
    </marker>
    <inkscape:path-effect
       is_visible="true"
       id="path-effect3773-9"
       effect="spiro" />
    <inkscape:path-effect
       is_visible="true"
       id="path-effect3757-8"
       effect="spiro" />
    <inkscape:path-effect
       is_visible="true"
       id="path-effect3761-2"
       effect="spiro" />
    <marker
       style="overflow:visible"
       id="Arrow2Lstart-1-0"
       refX="0"
       refY="0"
       orient="auto"
       inkscape:stockid="Arrow2Lstart">
      <path
         transform="matrix(1.1,0,0,1.1,1.1,0)"
         d="M 8.7185878,4.0337352 -2.2072895,0.01601326 8.7185884,-4.0017078 c -1.7454984,2.3720609 -1.7354408,5.6174519 -6e-7,8.035443 z"
         style="fill-rule:evenodd;stroke-width:0.625;stroke-linejoin:round"
         id="path3797-7-9"
         inkscape:connector-curvature="0" />
    </marker>
    <inkscape:path-effect
       is_visible="true"
       id="path-effect3761-2-4"
       effect="spiro" />
    <marker
       style="overflow:visible"
       id="Arrow2Lend-4-5"
       refX="0"
       refY="0"
       orient="auto"
       inkscape:stockid="Arrow2Lend">
      <path
         transform="matrix(-1.1,0,0,-1.1,-1.1,0)"
         d="M 8.7185878,4.0337352 -2.2072895,0.01601326 8.7185884,-4.0017078 c -1.7454984,2.3720609 -1.7354408,5.6174519 -6e-7,8.035443 z"
         style="fill-rule:evenodd;stroke-width:0.625;stroke-linejoin:round"
         id="path3800-0-1"
         inkscape:connector-curvature="0" />
    </marker>
    <inkscape:path-effect
       is_visible="true"
       id="path-effect3757-8-7"
       effect="spiro" />
    <marker
       style="overflow:visible"
       id="Arrow2Lstart-1-1"
       refX="0"
       refY="0"
       orient="auto"
       inkscape:stockid="Arrow2Lstart">
      <path
         transform="matrix(1.1,0,0,1.1,1.1,0)"
         d="M 8.7185878,4.0337352 -2.2072895,0.01601326 8.7185884,-4.0017078 c -1.7454984,2.3720609 -1.7354408,5.6174519 -6e-7,8.035443 z"
         style="fill-rule:evenodd;stroke-width:0.625;stroke-linejoin:round"
         id="path3797-7-1"
         inkscape:connector-curvature="0" />
    </marker>
    <inkscape:path-effect
       is_visible="true"
       id="path-effect3761-2-5"
       effect="spiro" />
    <marker
       style="overflow:visible"
       id="Arrow2Lend-4-2"
       refX="0"
       refY="0"
       orient="auto"
       inkscape:stockid="Arrow2Lend">
      <path
         transform="matrix(-1.1,0,0,-1.1,-1.1,0)"
         d="M 8.7185878,4.0337352 -2.2072895,0.01601326 8.7185884,-4.0017078 c -1.7454984,2.3720609 -1.7354408,5.6174519 -6e-7,8.035443 z"
         style="fill-rule:evenodd;stroke-width:0.625;stroke-linejoin:round"
         id="path3800-0-16"
         inkscape:connector-curvature="0" />
    </marker>
    <inkscape:path-effect
       is_visible="true"
       id="path-effect3757-8-7-8"
       effect="spiro" />
    <marker
       style="overflow:visible"
       id="Arrow2Lend-4-50"
       refX="0"
       refY="0"
       orient="auto"
       inkscape:stockid="Arrow2Lend">
      <path
         transform="matrix(-1.1,0,0,-1.1,-1.1,0)"
         d="M 8.7185878,4.0337352 -2.2072895,0.01601326 8.7185884,-4.0017078 c -1.7454984,2.3720609 -1.7354408,5.6174519 -6e-7,8.035443 z"
         style="fill-rule:evenodd;stroke-width:0.625;stroke-linejoin:round"
         id="path3800-0-2"
         inkscape:connector-curvature="0" />
    </marker>
    <inkscape:path-effect
       is_visible="true"
       id="path-effect3757-8-7-8-8"
       effect="spiro" />
    <inkscape:path-effect
       is_visible="true"
       id="path-effect4032-3"
       effect="spiro" />
    <inkscape:path-effect
       is_visible="true"
       id="path-effect4032-3-4"
       effect="spiro" />
    <marker
       style="overflow:visible"
       id="StopL-1"
       refX="0"
       refY="0"
       orient="auto"
       inkscape:stockid="StopL">
      <path
         inkscape:connector-curvature="0"
         transform="scale(0.8)"
         style="fill:none;stroke:#000000;stroke-width:1.00000003pt"
         d="M 0,5.65 V -5.65"
         id="path4313-7" />
    </marker>
    <marker
       style="overflow:visible"
       id="marker3346"
       refX="0"
       refY="0"
       orient="auto"
       inkscape:stockid="StopL">
      <path
         inkscape:connector-curvature="0"
         transform="scale(0.8)"
         style="fill:none;stroke:#000000;stroke-width:1.00000003pt"
         d="M 0,5.65 V -5.65"
         id="path3348" />
    </marker>
    <inkscape:path-effect
       is_visible="true"
       id="path-effect3944-4"
       effect="spiro" />
    <marker
       style="overflow:visible"
       id="Arrow2Lstart-1-8"
       refX="0"
       refY="0"
       orient="auto"
       inkscape:stockid="Arrow2Lstart">
      <path
         transform="matrix(1.1,0,0,1.1,1.1,0)"
         d="M 8.7185878,4.0337352 -2.2072895,0.01601326 8.7185884,-4.0017078 c -1.7454984,2.3720609 -1.7354408,5.6174519 -6e-7,8.035443 z"
         style="fill-rule:evenodd;stroke-width:0.625;stroke-linejoin:round"
         id="path3797-7-8"
         inkscape:connector-curvature="0" />
    </marker>
    <inkscape:path-effect
       is_visible="true"
       id="path-effect3761-2-5-2"
       effect="spiro" />
    <marker
       style="overflow:visible"
       id="Arrow2Lend-4-55"
       refX="0"
       refY="0"
       orient="auto"
       inkscape:stockid="Arrow2Lend">
      <path
         transform="matrix(-1.1,0,0,-1.1,-1.1,0)"
         d="M 8.7185878,4.0337352 -2.2072895,0.01601326 8.7185884,-4.0017078 c -1.7454984,2.3720609 -1.7354408,5.6174519 -6e-7,8.035443 z"
         style="fill-rule:evenodd;stroke-width:0.625;stroke-linejoin:round"
         id="path3800-0-17"
         inkscape:connector-curvature="0" />
    </marker>
    <inkscape:path-effect
       is_visible="true"
       id="path-effect3757-8-7-1"
       effect="spiro" />
    <marker
       style="overflow:visible"
       id="Arrow2Lend-4-52"
       refX="0"
       refY="0"
       orient="auto"
       inkscape:stockid="Arrow2Lend">
      <path
         transform="matrix(-1.1,0,0,-1.1,-1.1,0)"
         d="M 8.7185878,4.0337352 -2.2072895,0.01601326 8.7185884,-4.0017078 c -1.7454984,2.3720609 -1.7354408,5.6174519 -6e-7,8.035443 z"
         style="fill-rule:evenodd;stroke-width:0.625;stroke-linejoin:round"
         id="path3800-0-7"
         inkscape:connector-curvature="0" />
    </marker>
    <inkscape:path-effect
       is_visible="true"
       id="path-effect3757-8-7-8-6"
       effect="spiro" />
    <marker
       style="overflow:visible"
       id="Arrow2Lstart-1-8-1"
       refX="0"
       refY="0"
       orient="auto"
       inkscape:stockid="Arrow2Lstart">
      <path
         transform="matrix(1.1,0,0,1.1,1.1,0)"
         d="M 8.7185878,4.0337352 -2.2072895,0.01601326 8.7185884,-4.0017078 c -1.7454984,2.3720609 -1.7354408,5.6174519 -6e-7,8.035443 z"
         style="fill-rule:evenodd;stroke-width:0.625;stroke-linejoin:round"
         id="path3797-7-8-8"
         inkscape:connector-curvature="0" />
    </marker>
    <inkscape:path-effect
       is_visible="true"
       id="path-effect3757-8-7-8-6-9"
       effect="spiro" />
    <marker
       style="overflow:visible"
       id="Arrow2Lstart-1-8-4"
       refX="0"
       refY="0"
       orient="auto"
       inkscape:stockid="Arrow2Lstart">
      <path
         transform="matrix(1.1,0,0,1.1,1.1,0)"
         d="M 8.7185878,4.0337352 -2.2072895,0.01601326 8.7185884,-4.0017078 c -1.7454984,2.3720609 -1.7354408,5.6174519 -6e-7,8.035443 z"
         style="fill-rule:evenodd;stroke-width:0.625;stroke-linejoin:round"
         id="path3797-7-8-3"
         inkscape:connector-curvature="0" />
    </marker>
    <inkscape:path-effect
       is_visible="true"
       id="path-effect3757-8-7-8-6-1"
       effect="spiro" />
    <inkscape:path-effect
       is_visible="true"
       id="path-effect3033-3"
       effect="spiro" />
    <marker
       style="overflow:visible"
       id="Arrow2Lstart-1-4"
       refX="0"
       refY="0"
       orient="auto"
       inkscape:stockid="Arrow2Lstart">
      <path
         transform="matrix(1.1,0,0,1.1,1.1,0)"
         d="M 8.7185878,4.0337352 -2.2072895,0.01601326 8.7185884,-4.0017078 c -1.7454984,2.3720609 -1.7354408,5.6174519 -6e-7,8.035443 z"
         style="fill-rule:evenodd;stroke-width:0.625;stroke-linejoin:round"
         id="path3797-7-11"
         inkscape:connector-curvature="0" />
    </marker>
    <inkscape:path-effect
       is_visible="true"
       id="path-effect3761-2-5-2-3"
       effect="spiro" />
    <inkscape:path-effect
       is_visible="true"
       id="path-effect11042-7"
       effect="spiro" />
    <inkscape:path-effect
       is_visible="true"
       id="path-effect11067-9"
       effect="spiro" />
    <inkscape:path-effect
       is_visible="true"
       id="path-effect3761-2-5-2-3-1"
       effect="spiro" />
    <marker
       style="overflow:visible"
       id="Arrow2Lstart-1-45"
       refX="0"
       refY="0"
       orient="auto"
       inkscape:stockid="Arrow2Lstart">
      <path
         transform="matrix(1.1,0,0,1.1,1.1,0)"
         d="M 8.7185878,4.0337352 -2.2072895,0.01601326 8.7185884,-4.0017078 c -1.7454984,2.3720609 -1.7354408,5.6174519 -6e-7,8.035443 z"
         style="fill-rule:evenodd;stroke-width:0.625;stroke-linejoin:round"
         id="path3797-7-5"
         inkscape:connector-curvature="0" />
    </marker>
    <inkscape:path-effect
       is_visible="true"
       id="path-effect3761-2-5-2-1"
       effect="spiro" />
    <marker
       style="overflow:visible"
       id="Arrow2Lstart-1-17"
       refX="0"
       refY="0"
       orient="auto"
       inkscape:stockid="Arrow2Lstart">
      <path
         transform="matrix(1.1,0,0,1.1,1.1,0)"
         d="M 8.7185878,4.0337352 -2.2072895,0.01601326 8.7185884,-4.0017078 c -1.7454984,2.3720609 -1.7354408,5.6174519 -6e-7,8.035443 z"
         style="fill-rule:evenodd;stroke-width:0.625;stroke-linejoin:round"
         id="path3797-7-4"
         inkscape:connector-curvature="0" />
    </marker>
    <inkscape:path-effect
       is_visible="true"
       id="path-effect3761-2-5-2-1-0"
       effect="spiro" />
    <marker
       style="overflow:visible"
       id="Arrow2Mstart-4"
       refX="0"
       refY="0"
       orient="auto"
       inkscape:stockid="Arrow2Mstart">
      <path
         transform="scale(0.6)"
         d="M 8.7185878,4.0337352 -2.2072895,0.01601326 8.7185884,-4.0017078 c -1.7454984,2.3720609 -1.7354408,5.6174519 -6e-7,8.035443 z"
         style="fill-rule:evenodd;stroke-width:0.625;stroke-linejoin:round"
         id="path4615-8"
         inkscape:connector-curvature="0" />
    </marker>
    <inkscape:path-effect
       is_visible="true"
       id="path-effect3761-2-5-2-1-8"
       effect="spiro" />
    <marker
       style="overflow:visible"
       id="Arrow2Mstart-45"
       refX="0"
       refY="0"
       orient="auto"
       inkscape:stockid="Arrow2Mstart">
      <path
         transform="scale(0.6)"
         d="M 8.7185878,4.0337352 -2.2072895,0.01601326 8.7185884,-4.0017078 c -1.7454984,2.3720609 -1.7354408,5.6174519 -6e-7,8.035443 z"
         style="fill-rule:evenodd;stroke-width:0.625;stroke-linejoin:round"
         id="path4615-5"
         inkscape:connector-curvature="0" />
    </marker>
    <inkscape:path-effect
       is_visible="true"
       id="path-effect3761-2-5-2-1-1"
       effect="spiro" />
    <marker
       style="overflow:visible"
       id="Arrow2Mstart-1"
       refX="0"
       refY="0"
       orient="auto"
       inkscape:stockid="Arrow2Mstart">
      <path
         transform="scale(0.6)"
         d="M 8.7185878,4.0337352 -2.2072895,0.01601326 8.7185884,-4.0017078 c -1.7454984,2.3720609 -1.7354408,5.6174519 -6e-7,8.035443 z"
         style="fill-rule:evenodd;stroke-width:0.625;stroke-linejoin:round"
         id="path4615-1"
         inkscape:connector-curvature="0" />
    </marker>
    <inkscape:path-effect
       is_visible="true"
       id="path-effect3761-2-5-2-1-1-5"
       effect="spiro" />
    <marker
       style="overflow:visible"
       id="Arrow2Mstart-5"
       refX="0"
       refY="0"
       orient="auto"
       inkscape:stockid="Arrow2Mstart">
      <path
         transform="scale(0.6)"
         d="M 8.7185878,4.0337352 -2.2072895,0.01601326 8.7185884,-4.0017078 c -1.7454984,2.3720609 -1.7354408,5.6174519 -6e-7,8.035443 z"
         style="fill-rule:evenodd;stroke-width:0.625;stroke-linejoin:round"
         id="path4615-7"
         inkscape:connector-curvature="0" />
    </marker>
    <inkscape:path-effect
       is_visible="true"
       id="path-effect3761-2-5-2-1-8-6"
       effect="spiro" />
    <marker
       style="overflow:visible"
       id="Arrow2Mend-1"
       refX="0"
       refY="0"
       orient="auto"
       inkscape:stockid="Arrow2Mend">
      <path
         inkscape:connector-curvature="0"
         transform="scale(-0.6)"
         d="M 8.7185878,4.0337352 -2.2072895,0.01601326 8.7185884,-4.0017078 c -1.7454984,2.3720609 -1.7354408,5.6174519 -6e-7,8.035443 z"
         style="fill-rule:evenodd;stroke-width:0.625;stroke-linejoin:round"
         id="path4942-7" />
    </marker>
    <inkscape:path-effect
       is_visible="true"
       id="path-effect3761-2-5-2-1-8-6-4"
       effect="spiro" />
    <marker
       style="overflow:visible"
       id="Arrow2Mend-2"
       refX="0"
       refY="0"
       orient="auto"
       inkscape:stockid="Arrow2Mend">
      <path
         inkscape:connector-curvature="0"
         transform="scale(-0.6)"
         d="M 8.7185878,4.0337352 -2.2072895,0.01601326 8.7185884,-4.0017078 c -1.7454984,2.3720609 -1.7354408,5.6174519 -6e-7,8.035443 z"
         style="fill-rule:evenodd;stroke-width:0.625;stroke-linejoin:round"
         id="path4942-4" />
    </marker>
    <inkscape:path-effect
       is_visible="true"
       id="path-effect3761-2-5-2-1-8-6-5"
       effect="spiro" />
    <marker
       style="overflow:visible"
       id="Arrow2Mstart-54"
       refX="0"
       refY="0"
       orient="auto"
       inkscape:stockid="Arrow2Mstart">
      <path
         inkscape:connector-curvature="0"
         transform="scale(0.6)"
         d="M 8.7185878,4.0337352 -2.2072895,0.01601326 8.7185884,-4.0017078 c -1.7454984,2.3720609 -1.7354408,5.6174519 -6e-7,8.035443 z"
         style="fill-rule:evenodd;stroke-width:0.625;stroke-linejoin:round"
         id="path4615-3" />
    </marker>
    <inkscape:path-effect
       is_visible="true"
       id="path-effect3761-2-5-2-1-8-9"
       effect="spiro" />
    <marker
       style="overflow:visible"
       id="Arrow2Mstart-9"
       refX="0"
       refY="0"
       orient="auto"
       inkscape:stockid="Arrow2Mstart">
      <path
         inkscape:connector-curvature="0"
         transform="scale(0.6)"
         d="M 8.7185878,4.0337352 -2.2072895,0.01601326 8.7185884,-4.0017078 c -1.7454984,2.3720609 -1.7354408,5.6174519 -6e-7,8.035443 z"
         style="fill-rule:evenodd;stroke-width:0.625;stroke-linejoin:round"
         id="path4615-0" />
    </marker>
    <inkscape:path-effect
       is_visible="true"
       id="path-effect3761-2-5-2-1-1-7"
       effect="spiro" />
  </defs>
  <metadata
     id="metadata7">
    <rdf:RDF>
      <cc:Work
         rdf:about="">
        <dc:format>image/svg+xml</dc:format>
        <dc:type
           rdf:resource="http://purl.org/dc/dcmitype/StillImage" />
        <dc:title></dc:title>
      </cc:Work>
    </rdf:RDF>
  </metadata>
  <g
     transform="translate(0,-751.65218)"
     id="layer1"
     inkscape:groupmode="layer"
     inkscape:label="Camada 1">
    <path
       sodipodi:nodetypes="czzzzzc"
       inkscape:connector-curvature="0"
       id="path5100-3"
       d="m 11.39191,918.3804 c 0,0 17.381242,-2.74321 29.673554,-3.81932 12.292312,-1.07611 29.673233,-2.93799 44.363439,-3.52557 14.690207,-0.58758 33.148257,-1.79628 48.770407,-2.05658 15.62215,-0.2603 29.47435,0.55681 47.00761,0.88139 17.53326,0.32458 35.8841,1.96418 53.17737,3.23178 17.29327,1.2676 48.18281,5.2883 48.18281,5.2883"
       style="fill:none;fill-rule:evenodd;stroke:#b3b3b3;stroke-width:1px;stroke-linecap:butt;stroke-linejoin:miter;stroke-opacity:1" />
    <path
       sodipodi:nodetypes="czzzzzc"
       inkscape:connector-curvature="0"
       id="path5100"
       d="m 18.803047,1022.8331 c 0,0 17.381246,-2.7433 29.673558,-3.8194 12.292312,-1.0761 29.379434,-1.469 44.069641,-2.0566 14.690204,-0.5875 28.447494,-1.2086 44.069644,-1.4689 15.62215,-0.2603 32.11853,-0.3246 49.65179,0 17.53326,0.3245 38.23448,0.7889 55.52775,2.0566 17.29327,1.2675 48.18281,5.2883 48.18281,5.2883"
       style="fill:none;fill-rule:evenodd;stroke:#b3b3b3;stroke-width:1px;stroke-linecap:butt;stroke-linejoin:miter;stroke-opacity:1" />
    <path
       inkscape:connector-curvature="0"
       id="path5094"
       d="m 19.978237,830.21722 c 1.077258,0 2.154516,0 3.231774,0 0.195865,0 0.39173,0 0.587595,0 0.195865,0 0.397578,-0.0475 0.587595,0 0.212446,0.0531 0.37515,0.24068 0.587596,0.29379 0.285025,0.0713 0.587595,0 0.881392,0 0.685528,0 1.371056,0 2.056584,0 0.153632,0 1.097938,0.0386 1.17519,0 0.123876,-0.0619 0.169922,-0.23186 0.293798,-0.29379 0.192383,-0.0962 1.208262,0.0869 1.468988,0 0.745188,-0.2484 1.311353,-0.98889 2.056583,-1.1752 0.190017,-0.0475 0.39173,0 0.587595,0 0.195865,-0.0979 0.379849,-0.22454 0.587595,-0.29379 0.09291,-0.031 0.206204,0.0438 0.293798,0 0.123876,-0.0619 0.178561,-0.21698 0.293798,-0.2938 0.364411,-0.24294 0.810779,-0.34465 1.17519,-0.58759 0.230474,-0.15365 0.339843,-0.46372 0.587595,-0.5876 0.08759,-0.0438 0.206204,0.0438 0.293798,0 0.123876,-0.0619 0.169921,-0.23186 0.293797,-0.2938 0.08759,-0.0438 0.206204,0.0438 0.293798,0 0.123876,-0.0619 0.169922,-0.23186 0.293798,-0.2938 0.08759,-0.0438 0.195865,0 0.293797,0 0.09793,0 0.206204,0.0438 0.293798,0 0.123876,-0.0619 0.169921,-0.23186 0.293797,-0.29379 0.175187,-0.0876 0.401782,0.0619 0.587596,0 1.664565,-0.83229 -0.437968,0.10949 1.17519,-0.2938 0.474314,-0.11858 0.582742,-0.28894 0.881393,-0.5876 0.09793,-0.0979 0.169922,-0.23186 0.293797,-0.29379 0.175188,-0.0876 0.412409,0.0876 0.587596,0 0.123876,-0.0619 0.169921,-0.23186 0.293797,-0.2938 0.175187,-0.0876 0.449098,0.1385 0.587595,0 0.06925,-0.0693 -0.06925,-0.22455 0,-0.2938 0.06925,-0.0692 0.206205,0.0438 0.293798,0 0.123876,-0.0619 0.169922,-0.23186 0.293798,-0.2938 0.08759,-0.0438 0.206204,0.0438 0.293797,0 0.123876,-0.0619 0.169922,-0.23186 0.293798,-0.29379 0.08759,-0.0438 0.195865,0 0.293798,0 0.09793,-0.0979 0.169921,-0.23186 0.293797,-0.2938 0.235038,-0.11752 0.646355,0.11752 0.881393,0 0.123876,-0.0619 0.162407,-0.25 0.293798,-0.2938 0.134379,-0.0448 1.044457,0.0654 1.17519,0 0.123876,-0.0619 0.162407,-0.25 0.293798,-0.2938 0.401149,-0.13371 1.361636,0.13372 1.762785,0 0.131391,-0.0438 0.162408,-0.25 0.293798,-0.29379 0.185814,-0.0619 0.39173,0 0.587595,0 0.39173,0 0.78346,0 1.17519,0 1.175191,0 2.350381,0 3.525572,0 0.489662,0 0.979325,0 1.468988,0 0.195865,0 0.397578,0.0475 0.587595,0 0.637031,-0.15926 0.831957,-0.72214 1.468988,-0.8814 0.190017,-0.0475 0.424626,0.10865 0.587595,0 0.182206,-0.12147 0.111592,-0.46612 0.293798,-0.58759 0.162969,-0.10865 0.397578,0.0475 0.587595,0 0.19057,-0.0476 1.575557,-0.75658 1.762786,-0.88139 0.115237,-0.0768 0.162407,-0.25001 0.293797,-0.2938 0.185814,-0.0619 0.397578,0.0475 0.587595,0 0.212446,-0.0531 0.391731,-0.19587 0.587596,-0.2938 0.522307,-0.26115 0.86391,-0.46658 1.468988,-0.5876 0.192061,-0.0384 0.401781,0.0619 0.587595,0 0.262781,-0.0876 0.339843,-0.46371 0.587595,-0.58759 0.08759,-0.0438 0.200891,0.031 0.293798,0 0.207746,-0.0693 0.379849,-0.22455 0.587595,-0.2938 0.09291,-0.031 0.206204,0.0438 0.293798,0 0.123876,-0.0619 0.162407,-0.25 0.293797,-0.2938 0.185814,-0.0619 0.401781,0.0619 0.587595,0 0.131391,-0.0438 0.195865,-0.19586 0.293798,-0.29379 0.195865,-0.0979 0.37515,-0.24069 0.587595,-0.2938 0.380034,-0.095 0.803563,0.12388 1.175191,0 0.13139,-0.0438 0.162407,-0.25 0.293797,-0.2938 0.371628,-0.12387 0.795157,0.095 1.175191,0 0.212445,-0.0531 0.375149,-0.24068 0.587595,-0.2938 0.475042,-0.11876 0.988834,0.096 1.468988,0 0.429462,-0.0859 0.750299,-0.48137 1.17519,-0.58759 0.190017,-0.0475 0.395534,0.0384 0.587596,0 0.303675,-0.0607 0.580949,-0.21869 0.881392,-0.2938 0.199943,-0.05 0.72072,0.0803 0.881393,0 0.420822,-0.21041 0.166773,-0.37718 0.587595,-0.58759 0.175187,-0.0876 0.412409,0.0876 0.587596,0 0.123876,-0.0619 0.169921,-0.23186 0.293797,-0.2938 0.235038,-0.11752 0.646355,0.11752 0.881393,0 0.123876,-0.0619 0.169922,-0.23186 0.293798,-0.2938 0.173346,-0.0867 0.679309,0.0674 0.881392,0 0.207747,-0.0693 0.37515,-0.24069 0.587596,-0.2938 0.740598,-0.18515 0.434592,0.18515 1.17519,0 0.212446,-0.0531 0.37515,-0.24068 0.587595,-0.29379 0.291239,-0.0728 1.208833,0.0867 1.468988,0 0.207747,-0.0693 0.37515,-0.24069 0.587596,-0.2938 0.285025,-0.0713 0.602671,0.0929 0.881392,0 0.207747,-0.0693 0.379849,-0.22455 0.587596,-0.2938 0.185814,-0.0619 0.412408,0.0876 0.587595,0 0.123876,-0.0619 0.169921,-0.23186 0.293797,-0.2938 0.08759,-0.0438 0.206204,0.0438 0.293798,0 0.123876,-0.0619 0.169922,-0.23186 0.293798,-0.2938 0.08759,-0.0438 0.206204,0.0438 0.293797,0 0.123876,-0.0619 0.169922,-0.23185 0.293798,-0.29379 0.08759,-0.0438 0.195865,0 0.293797,0 0.437293,0 0.375002,0.0438 0.881393,-0.2938 0.537573,-0.35838 0.02931,-0.37458 0.881393,-0.5876 0.285026,-0.0713 0.602672,0.0929 0.881393,0 0.207746,-0.0693 0.37515,-0.24068 0.587595,-0.29379 0.216499,-0.0541 1.29686,0.0861 1.468988,0 0.123876,-0.0619 0.169922,-0.23186 0.293798,-0.2938 0.235038,-0.11752 0.646354,0.11752 0.881393,0 0.123876,-0.0619 0.169921,-0.23186 0.293797,-0.2938 0.184658,-0.0923 0.990532,0.0923 1.175191,0 0.123876,-0.0619 0.17856,-0.21697 0.293797,-0.2938 1.484209,-0.98947 0.0068,-0.002 0.881393,-0.29379 0.207746,-0.0693 0.379849,-0.22455 0.587595,-0.2938 0.185814,-0.0619 0.412408,0.0876 0.587595,0 0.247752,-0.12388 0.339844,-0.46372 0.587596,-0.5876 0.08759,-0.0438 0.195865,0 0.293797,0 0.09793,0 0.206204,0.0438 0.293798,0 0.247752,-0.12387 0.339843,-0.46372 0.587595,-0.58759 0.175184,-0.0876 0.412404,0.0876 0.587594,0 0.12388,-0.0619 0.16992,-0.23186 0.2938,-0.2938 0.0876,-0.0438 0.20089,0.031 0.2938,0 0.41549,-0.1385 0.75969,-0.4491 1.17519,-0.58759 0.18581,-0.0619 0.41241,0.0876 0.58759,0 0.12388,-0.0619 0.16992,-0.23186 0.2938,-0.2938 0.18535,-0.0927 1.28364,0.0927 1.46899,0 0.12387,-0.0619 0.16992,-0.23186 0.2938,-0.2938 0.23503,-0.11752 0.64635,0.11752 0.88139,0 0.24775,-0.12388 0.33984,-0.46372 0.58759,-0.58759 0.0876,-0.0438 0.20621,0.0438 0.2938,0 0.66873,-0.66873 -0.0608,-0.0776 0.5876,-0.2938 2.12809,-0.70937 -0.46321,0.0847 0.88139,-0.5876 0.31219,-0.1561 0.2754,0.1561 0.58759,0 0.12388,-0.0619 0.16993,-0.23186 0.2938,-0.2938 0.0876,-0.0438 0.20621,0.0438 0.2938,0 0.12388,-0.0619 0.16992,-0.23185 0.2938,-0.29379 0.0876,-0.0438 0.2062,0.0438 0.29379,0 0.12388,-0.0619 0.16993,-0.23186 0.2938,-0.2938 0.17519,-0.0876 0.41241,0.0876 0.5876,0 0.12387,-0.0619 0.16992,-0.23186 0.2938,-0.2938 0.0876,-0.0438 0.2062,0.0438 0.29379,0 0.12388,-0.0619 0.16992,-0.23186 0.2938,-0.2938 0.0876,-0.0438 0.20089,0.031 0.2938,0 0.19586,-0.0979 0.39173,-0.19586 0.58759,-0.29379 0.0979,0 0.20089,0.031 0.2938,0 0.20775,-0.0693 0.37515,-0.24069 0.5876,-0.2938 0.19001,-0.0475 0.40178,0.0619 0.58759,0 0.13139,-0.0438 0.16992,-0.23186 0.2938,-0.2938 0.0876,-0.0438 0.2062,0.0438 0.2938,0 0.12387,-0.0619 0.1624,-0.25 0.29379,-0.2938 0.37163,-0.12387 0.79516,0.095 1.17519,0 0.21245,-0.0531 0.37985,-0.22454 0.5876,-0.29379 0.0929,-0.031 0.19586,0 0.2938,0 0.39173,0 0.78346,0 1.17519,0 0.19586,0 0.39173,0 0.58759,0 0.0979,0 0.20089,0.031 0.2938,0 0.20775,-0.0693 0.37515,-0.24069 0.5876,-0.2938 0.38003,-0.095 0.80356,0.12387 1.17519,0 0.13139,-0.0438 0.15943,-0.26021 0.29379,-0.2938 0.57005,-0.14251 1.18319,0.0966 1.76279,0 0.30548,-0.0509 0.57592,-0.24288 0.88139,-0.2938 0.2898,-0.0483 0.59637,0.0713 0.88139,0 0.13437,-0.0336 0.16241,-0.25 0.2938,-0.29379 0.16248,-0.0542 1.46692,0 1.76279,0 0.0979,0 0.2062,0.0438 0.2938,0 0.12387,-0.0619 0.1624,-0.25 0.29379,-0.2938 0.35544,-0.11848 1.3626,0.10005 1.76279,0 0.21244,-0.0531 0.37985,-0.22455 0.58759,-0.2938 0.18582,-0.0619 0.40179,0.0619 0.5876,0 0.20775,-0.0693 0.37985,-0.22455 0.58759,-0.2938 0.20209,-0.0674 0.70805,0.0867 0.8814,0 0.12387,-0.0619 0.16992,-0.23186 0.2938,-0.29379 0.17518,-0.0876 0.4124,0.0876 0.58759,0 0.24775,-0.12388 0.33984,-0.46372 0.5876,-0.5876 0.31346,-0.15673 0.27412,0.15673 0.58759,0 0.12388,-0.0619 0.17856,-0.21697 0.2938,-0.2938 0.1822,-0.12147 0.39173,-0.19586 0.58759,-0.29379 0.19587,-0.0979 0.37985,-0.22455 0.5876,-0.2938 0.18581,-0.0619 0.41241,0.0876 0.58759,0 0.12388,-0.0619 0.16993,-0.23186 0.2938,-0.2938 0.0876,-0.0438 0.20621,0.0438 0.2938,0 0.12388,-0.0619 0.16992,-0.23186 0.2938,-0.2938 0.17518,-0.0876 0.41241,0.0876 0.58759,0 0.12388,-0.0619 0.16992,-0.23186 0.2938,-0.2938 0.31347,-0.15673 0.27413,0.15674 0.58759,0 0.12388,-0.0619 0.16993,-0.23185 0.2938,-0.29379 0.0876,-0.0438 0.20621,0.0438 0.2938,0 0.12388,-0.0619 0.16992,-0.23186 0.2938,-0.2938 0.0876,-0.0438 0.19586,0 0.2938,0 0.0979,0 0.19586,0 0.29379,0 0.28465,0 1.58761,0.0584 1.76279,0 0.20774,-0.0693 0.37985,-0.22455 0.58759,-0.2938 0.3122,-0.10406 0.863,0.10407 1.17519,0 0.13139,-0.0438 0.16993,-0.23186 0.2938,-0.2938 0.1784,-0.0892 1.58439,0.0892 1.76279,0 0.12387,-0.0619 0.16992,-0.23186 0.2938,-0.29379 0.0658,-0.0329 1.10537,0 1.17519,0 0.68552,0 1.37105,0 2.05658,0 0.68553,0 1.37105,0 2.05658,0 0.19587,0 0.39554,-0.0384 0.5876,0 0.30367,0.0607 0.57771,0.23306 0.88139,0.29379 0.38412,0.0768 0.80356,-0.12387 1.17519,0 0.13139,0.0438 0.16241,0.25001 0.2938,0.2938 0.40115,0.13372 1.36163,-0.13371 1.76278,0 0.13139,0.0438 0.16241,0.25 0.2938,0.2938 0.88139,0.2938 0.2938,-0.1469 0.88139,0 0.30045,0.0751 0.57772,0.23306 0.8814,0.2938 0.19206,0.0384 0.40178,-0.0619 0.58759,0 0.13139,0.0438 0.16241,0.25 0.2938,0.29379 0.18581,0.0619 0.40178,-0.0619 0.58759,0 0.1314,0.0438 0.16993,0.23186 0.2938,0.2938 0.0876,0.0438 0.20621,-0.0438 0.2938,0 0.12388,0.0619 0.16992,0.23186 0.2938,0.2938 0.18466,0.0923 0.99053,-0.0923 1.17519,0 0.12387,0.0619 0.16992,0.23186 0.2938,0.2938 0.0876,0.0438 0.19586,0 0.29379,0 0.19587,0 0.39554,-0.0384 0.5876,0 0.30367,0.0607 0.57772,0.23306 0.88139,0.2938 0.19206,0.0384 0.39554,-0.0384 0.5876,0 2.09281,0.41856 -0.49909,0.22249 2.05658,0.58759 2.24128,0 -0.23176,-0.13139 1.46899,0.2938 0.38003,0.095 0.79515,-0.095 1.17519,0 0.21244,0.0531 0.37985,0.22455 0.58759,0.2938 0.26442,0.0881 0.61698,-0.0881 0.8814,0 0.20774,0.0693 0.37515,0.24068 0.58759,0.29379 0.19002,0.0475 0.39173,0 0.5876,0 0.24602,0 1.24556,-0.0559 1.46898,0 0.21245,0.0531 0.37515,0.24069 0.5876,0.2938 0.46086,0.11522 1.00813,-0.11521 1.46899,0 0.21244,0.0531 0.37515,0.24069 0.58759,0.2938 0.19002,0.0475 0.40178,-0.0619 0.5876,0 0.13139,0.0438 0.16241,0.25 0.2938,0.2938 0.40115,0.13371 1.36163,-0.13372 1.76278,0 0.13139,0.0438 0.16241,0.25 0.2938,0.29379 0.22969,0.0766 1.60111,-0.0808 1.76278,0 0.12388,0.0619 0.16241,0.25 0.2938,0.2938 0.18582,0.0619 0.39173,0 0.5876,0 0.39173,0 0.79107,-0.0768 1.17519,0 0.13581,0.0272 0.16241,0.25 0.2938,0.2938 0.37162,0.12387 0.79515,-0.095 1.17519,0 0.21244,0.0531 0.37515,0.24068 0.58759,0.2938 0.38983,0.0975 1.41691,-0.1153 1.76279,0 0.13139,0.0438 0.16992,0.23186 0.29379,0.29379 0.13093,0.0655 1.07044,-0.0209 1.1752,0 0.30367,0.0607 0.57771,0.23307 0.88139,0.2938 0.19206,0.0384 0.39173,0 0.58759,0 0.5876,0 1.17519,0 1.76279,0 0.0979,0 0.20089,-0.031 0.2938,0 0.20774,0.0693 0.37985,0.22455 0.58759,0.2938 0.23648,0.0788 0.98745,-0.0939 1.17519,0 0.12388,0.0619 0.16992,0.23186 0.2938,0.2938 0.0876,0.0438 0.19586,0 0.2938,0 0.0979,0 0.19586,0 0.29379,0 0.48967,0 0.97933,0 1.46899,0 0.19587,0 0.39173,0 0.5876,0 0.0979,0 0.20089,-0.031 0.2938,0 0.19586,0.0979 0.39173,0.19586 0.58759,0.29379 0.19587,0 0.40178,-0.0619 0.5876,0 0.13139,0.0438 0.16992,0.23186 0.29379,0.2938 0.0876,0.0438 0.19879,-0.0237 0.2938,0 0.30044,0.0751 0.57482,0.25 0.88139,0.2938 0.3878,0.0554 0.78346,0 1.17519,0 0.19587,0 0.39554,-0.0384 0.5876,0 0.30368,0.0607 0.57772,0.23306 0.88139,0.2938 0.38413,0.0768 0.78346,0 1.17519,0 0.0979,0 0.20089,-0.031 0.2938,0 0.20775,0.0693 0.37515,0.24068 0.5876,0.29379 0.25008,0.0625 1.30032,-0.0843 1.46898,0 0.12388,0.0619 0.16993,0.23186 0.2938,0.2938 0.17696,0.0885 1.50599,-0.0856 1.76279,0 0.20774,0.0693 0.37515,0.24069 0.58759,0.2938 0.38004,0.095 0.79107,-0.0768 1.17519,0 0.30368,0.0607 0.57772,0.23306 0.8814,0.2938 0.19206,0.0384 0.39173,0 0.58759,0 0.68553,0 1.37106,0 2.05658,0 0.19587,0 0.39554,-0.0384 0.5876,0 0.30368,0.0607 0.57481,0.25 0.88139,0.2938 0.3878,0.0554 0.78346,0 1.17519,0 0.0979,0 0.20089,-0.031 0.2938,0 0.20775,0.0693 0.37515,0.24068 0.5876,0.29379 0.19882,0.0497 1.86752,0 2.05658,0 1.17519,0 2.35038,0 3.52557,0 0.30553,0 1.53168,-0.0578 1.76279,0 0.21244,0.0531 0.37515,0.24069 0.58759,0.2938 0.19002,0.0475 0.39173,0 0.5876,0 0.48966,0 0.97932,0 1.46898,0 0.19587,0 0.40179,-0.0619 0.5876,0 0.13139,0.0438 0.16992,0.23186 0.2938,0.2938 0.0874,0.0437 1.63919,0 1.76278,0 1.07726,0 2.15452,0 3.23178,0 0.78346,0 1.56692,0 2.35038,0 0.19586,0 0.39173,0 0.58759,0 0.19587,0 0.40178,-0.0619 0.5876,0 0.13139,0.0438 0.16992,0.23186 0.29379,0.2938 0.0894,0.0447 0.74908,0 0.8814,0 0.51646,0 1.30309,0.0766 1.76278,0 0.30548,-0.0509 0.57772,-0.23307 0.8814,-0.2938 0.19206,-0.0384 0.39173,0 0.58759,0 0.68553,0 1.37106,0 2.05658,0 0.19587,0 0.39758,0.0475 0.5876,0 0.21245,-0.0531 0.37985,-0.22455 0.5876,-0.2938 0.17518,-0.0584 1.47813,0 1.76278,0 0.0979,0 0.2062,0.0438 0.2938,0 0.12387,-0.0619 0.16241,-0.25 0.2938,-0.2938 0.18581,-0.0619 0.39173,0 0.58759,0 0.48966,0 0.97933,0 1.46899,0 0.78346,0 1.56692,0 2.35038,0 0.2938,0 0.59055,-0.0416 0.88139,0 0.39973,0.0571 0.77547,0.2367 1.17519,0.2938 0.67864,0.0969 1.37795,-0.0969 2.05659,0 0.30657,0.0438 0.57771,0.23306 0.88139,0.2938 0.38412,0.0768 0.80356,-0.12388 1.17519,0 0.13139,0.0438 0.16241,0.25 0.2938,0.2938 0.18581,0.0619 0.40178,-0.0619 0.58759,0 0.26278,0.0876 0.32482,0.5 0.5876,0.58759 0.18581,0.0619 0.40178,-0.0619 0.58759,0 0.13139,0.0438 0.19587,0.19587 0.2938,0.2938 0.19587,0 0.39758,-0.0475 0.5876,0 0.21244,0.0531 0.39173,0.19586 0.58759,0.2938 0.19587,0.0979 0.40539,0.17232 0.5876,0.29379 0.11523,0.0768 0.1624,0.25 0.29379,0.2938 0.18582,0.0619 0.42463,-0.10865 0.5876,0 0.1822,0.12147 0.13895,0.43275 0.2938,0.5876 0.0693,0.0693 0.20089,-0.031 0.29379,0 0.20775,0.0693 0.40539,0.17232 0.5876,0.29379 0.23047,0.15365 0.33984,0.46372 0.58759,0.5876 0.17335,0.0867 0.67931,-0.0674 0.8814,0 0.41549,0.1385 0.7597,0.4491 1.17519,0.58759 0.17338,0.0578 1.30483,0 1.46899,0 0.78346,0 1.56692,0 2.35038,0 0.88139,0 1.76278,0 2.64418,0 0.19586,0 0.39173,0 0.58759,0 0.0979,0 0.20089,0.031 0.2938,0 0.20774,-0.0693 0.37515,-0.24068 0.58759,-0.29379 0.13452,-0.0336 2.01287,-0.0219 2.05659,0 0.12387,0.0619 0.16992,0.23186 0.29379,0.29379 0.31315,0.15658 0.27445,-0.15657 0.5876,0 0.12388,0.0619 0.16241,0.25001 0.2938,0.2938 0.18581,0.0619 0.41241,-0.0876 0.58759,0 0.0876,0.0438 -0.0693,0.22455 0,0.2938 0.1385,0.1385 0.41241,-0.0876 0.5876,0 0.12387,0.0619 0.16992,0.23186 0.29379,0.2938 0.8646,0.43229 -0.3868,-0.68061 0.5876,0.29379"
       style="fill:none;fill-rule:evenodd;stroke:#cccccc;stroke-width:1.005;stroke-linecap:butt;stroke-linejoin:miter;stroke-miterlimit:4;stroke-dasharray:none;stroke-opacity:1" />
    <g
       id="g4861"
       transform="translate(0.265067,792.48192)">
      <g
         id="content"
         transform="matrix(0.38571429,0,0,-0.38571429,-67.5,225)"
         xml:space="preserve"
         stroke-miterlimit="10.433"
         font-style="normal"
         font-variant="normal"
         font-weight="normal"
         font-stretch="normal"
         font-size-adjust="none"
         letter-spacing="normal"
         word-spacing="normal"
         style="font-style:normal;font-variant:normal;font-weight:normal;font-stretch:normal;letter-spacing:normal;word-spacing:normal;text-anchor:start;fill:none;fill-opacity:1;fill-rule:evenodd;stroke:#000000;stroke-linecap:butt;stroke-linejoin:miter;stroke-miterlimit:10.43299961;stroke-dasharray:none;stroke-dashoffset:0;stroke-opacity:1"><path
           d="m 469.15,427.77 -0.58,-0.15 -0.57,-0.19 -0.56,-0.21 -0.55,-0.23 -0.54,-0.27 -0.53,-0.28 -0.52,-0.31 -0.5,-0.33 -0.49,-0.35 -0.48,-0.38 -0.46,-0.39 -0.45,-0.41 -0.44,-0.43 -0.41,-0.44 -0.4,-0.46 -0.38,-0.47 -0.36,-0.49 -0.35,-0.5 -0.32,-0.51 -0.31,-0.52 -0.28,-0.53 -0.27,-0.53 -0.24,-0.55 -0.21,-0.55 -0.2,-0.56 -0.17,-0.56 -0.15,-0.56 -0.12,-0.57 -0.09,-0.57 -0.07,-0.57 -0.04,-0.56 -0.02,-0.57 c 0,-4.78 3.19,-8.37 7.87,-8.37 v 1.1 c -2.74,0 -4.78,2.09 -4.78,5.88 0,3.14 1.84,12.5 8.57,14.29 v 0 c 1.24,-2.29 2.74,-4.98 2.74,-8.56 0,-3.29 -1.9,-11.61 -6.53,-11.61 v -1.1 c 5.83,0 9.97,7.82 9.97,14.7 0,4.53 -2,7.02 -3.69,9.26 -1.79,2.25 -4.73,5.98 -4.73,8.17 0,1.1 0.99,2.29 2.74,2.29 1.49,0 2.49,-0.64 3.54,-1.34 0.99,-0.6 1.99,-1.25 2.73,-1.25 1.25,0 2,1.2 2,2 0,1.09 -0.8,1.24 -2.59,1.64 -2.59,0.55 -3.29,0.55 -4.09,0.55 -3.88,0 -5.68,-2.15 -5.68,-5.13 0,-2.69 1.45,-5.48 2.99,-8.52 z"
           id="path4864"
           inkscape:connector-curvature="0"
           style="fill:#000000;stroke-width:0" /><path
           d="m 506.4,424.18 0.02,0.08 0.02,0.07 0.01,0.07 0.02,0.06 0.01,0.06 0.01,0.06 0.02,0.06 0.01,0.05 0.01,0.06 0.01,0.05 0.01,0.04 v 0.05 l 0.01,0.04 0.01,0.05 v 0.04 l 0.01,0.03 v 0.04 l 0.01,0.04 v 0.03 0.03 0.03 l 0.01,0.03 v 0.03 0.02 0.03 0.02 0.02 0.03 0.04 0.04 c 0,1.59 -1.3,2.19 -2.34,2.19 -1,0 -1.89,-0.45 -2.54,-1.2 -0.7,0.75 -2.34,2.05 -5.28,2.05 l 0.1,-1.8 c 3.08,0 4.18,-2.44 4.18,-2.79 0,-0.1 0,-0.2 -0.15,-0.75 l -2.89,-11.55 c -0.2,-0.7 -0.2,-0.9 -0.79,-1.45 -2.64,-2.39 -4.98,-2.39 -5.43,-2.39 -1.94,0 -3.39,1.1 -3.39,3.74 0,2.39 1.64,8.37 2.39,10.21 1.74,4.28 4.58,4.98 6.08,4.98 l -0.1,1.8 c -8.82,0 -14,-7.88 -14,-14.4 0,-5.88 4.44,-8.12 8.72,-8.12 2.59,0 4.58,1 5.48,1.54 -0.3,-1.24 -0.6,-2.49 -0.95,-3.73 -0.35,-1.45 -0.7,-2.94 -2.44,-4.34 -2.09,-1.74 -3.73,-1.74 -5.08,-1.74 -1.2,0 -2.09,0 -3.39,0.2 1.45,1.05 1.55,2.69 1.55,2.89 0,1.09 -0.85,2.29 -2.49,2.29 -1.65,0 -3.54,-1.4 -3.54,-3.68 0,-3.29 4.38,-3.49 7.92,-3.49 4.48,0 11.36,1.04 12.85,7.02 z"
           id="path4866"
           inkscape:connector-curvature="0"
           style="fill:#000000;stroke-width:0" /><path
           d="m 520.89,404.81 0.14,1.12 2.37,9.45 c 0.28,1.08 0.32,1.18 1.78,1.18 h 4.08 c 3.24,0 5.26,-0.98 5.26,-3.45 0,-1.08 -0.42,-3.84 -2.16,-5.41 -1.26,-1.11 -3.24,-1.77 -5.75,-1.77 h -5.58 l -0.14,-1.12 h 6.31 c 5.89,0 10.88,3.76 10.88,7.57 0,2.92 -2.86,5.44 -7.63,5.44 h -12.21 c -0.7,0 -1.12,0 -1.12,-0.77 0,-0.49 0.39,-0.49 1.15,-0.49 0.56,0 0.7,0 1.33,-0.07 0.7,-0.07 0.77,-0.14 0.77,-0.49 0,-0.07 0,-0.24 -0.14,-0.77 l -4.61,-18.37 c -0.34,-1.36 -0.38,-1.61 -3.1,-1.61 -0.63,0 -1.04,0 -1.04,-0.76 0,-0.04 0,-0.49 0.55,-0.49 h 9.17 c 0.21,0 0.74,0 0.74,0.77 0,0.48 -0.42,0.48 -1.12,0.48 -0.04,0 -0.7,0 -1.32,0.07 -0.8,0.07 -0.8,0.18 -0.8,0.53 0,0.03 0,0.24 0.13,0.76 z"
           id="path4868"
           inkscape:connector-curvature="0"
           style="fill:#000000;stroke-width:0" /></g>    </g>
    <path
       sodipodi:nodetypes="cc"
       inkscape:connector-curvature="0"
       inkscape:original-d="M 145.04489,1070.7592 144.53835,758.11382"
       inkscape:path-effect="#path-effect3761-2-5-2-3-1"
       id="path3759-4-6-4-8-7"
       d="M 145.04489,1070.7592 144.53835,758.11382"
       style="fill:none;stroke:#000000;stroke-width:1;stroke-linecap:butt;stroke-linejoin:miter;stroke-miterlimit:4;stroke-dasharray:2, 2;stroke-dashoffset:0;stroke-opacity:1;marker-start:none;marker-end:none" />
    <path
       sodipodi:nodetypes="cc"
       inkscape:connector-curvature="0"
       inkscape:original-d="m 144.86987,848.81656 -0.41423,-50.57028"
       inkscape:path-effect="#path-effect3761-2-5-2-1"
       id="path3759-4-6-4-7"
       d="m 144.86987,848.81656 -0.41423,-50.57028"
       style="fill:none;stroke:#000000;stroke-width:1.5;stroke-linecap:butt;stroke-linejoin:bevel;stroke-miterlimit:4;stroke-dasharray:none;stroke-opacity:1;marker-start:url(#Arrow2Mstart-1);marker-end:none" />
    <ellipse
       ry="2.4817522"
       rx="2.4817519"
       cy="797.64801"
       cx="144.63879"
       id="path4047-1-0-5-7-48"
       style="fill:#000000;fill-opacity:1;stroke:#000000;stroke-width:0.87149602;stroke-linejoin:miter;stroke-miterlimit:4;stroke-dasharray:none;stroke-dashoffset:0;stroke-opacity:1" />
    <path
       sodipodi:nodetypes="cc"
       inkscape:connector-curvature="0"
       inkscape:original-d="m 156.19881,855.40471 -11.42302,-57.578"
       inkscape:path-effect="#path-effect3761-2-5-2-1-1"
       id="path3759-4-6-4-7-7"
       d="m 156.19881,855.40471 -11.42302,-57.578"
       style="fill:none;stroke:#000000;stroke-width:1.5;stroke-linecap:butt;stroke-linejoin:bevel;stroke-miterlimit:4;stroke-dasharray:none;stroke-opacity:1;marker-start:url(#Arrow2Mstart);marker-end:none" />
    <path
       sodipodi:nodetypes="cc"
       inkscape:connector-curvature="0"
       inkscape:original-d="m 154.35067,856.06742 -9.32373,-5.13527"
       inkscape:path-effect="#path-effect3761-2-5-2-1-1-5"
       id="path3759-4-6-4-7-7-2"
       d="m 154.35067,856.06742 -9.32373,-5.13527"
       style="fill:none;stroke:#000000;stroke-width:1.5;stroke-linecap:butt;stroke-linejoin:bevel;stroke-miterlimit:4;stroke-dasharray:none;stroke-opacity:1;marker-start:url(#Arrow2Mstart);marker-end:none" />
    <ellipse
       ry="2.4817522"
       rx="2.4817519"
       cy="909.27802"
       cx="145.00681"
       id="path4047-1-0-5-7-4"
       style="fill:#000000;fill-opacity:1;stroke:#000000;stroke-width:0.87149602;stroke-linejoin:miter;stroke-miterlimit:4;stroke-dasharray:none;stroke-dashoffset:0;stroke-opacity:1" />
    <path
       sodipodi:nodetypes="cc"
       inkscape:connector-curvature="0"
       inkscape:original-d="m 144.82441,796.64019 -0.4443,-19.37027"
       inkscape:path-effect="#path-effect3761-2-5-2-1-8-6"
       id="path3759-4-6-4-7-2-1"
       d="m 144.82441,796.64019 -0.4443,-19.37027"
       style="fill:none;stroke:#000000;stroke-width:1.5;stroke-linecap:butt;stroke-linejoin:bevel;stroke-miterlimit:4;stroke-dasharray:none;stroke-opacity:1;marker-start:none;marker-end:url(#Arrow2Mend)" />
    <text
       id="text3893-6-7-4-0-1-7-8-2-6-6"
       y="930.37585"
       x="192.93419"
       style="font-style:normal;font-variant:normal;font-weight:normal;font-stretch:normal;line-height:0%;font-family:'Times New Roman';-inkscape-font-specification:'Times New Roman';letter-spacing:0px;word-spacing:0px;fill:#000000;fill-opacity:1;stroke:none"
       xml:space="preserve"><tspan
         style="font-style:normal;font-variant:normal;font-weight:bold;font-stretch:normal;font-size:18px;line-height:0;font-family:'TeX Gyre Schola';-inkscape-font-specification:'TeX Gyre Schola Bold'"
         y="930.37585"
         x="192.93419"
         id="tspan4220-6-9-9-7-6"
         sodipodi:role="line"></tspan></text>
    <g
       transform="translate(7.760431,759.42908)"
       id="g2100">
      <g
         style="font-style:normal;font-variant:normal;font-weight:normal;font-stretch:normal;letter-spacing:normal;word-spacing:normal;text-anchor:start;fill:none;fill-opacity:1;fill-rule:evenodd;stroke:#000000;stroke-linecap:butt;stroke-linejoin:miter;stroke-miterlimit:10.43299961;stroke-dasharray:none;stroke-dashoffset:0;stroke-opacity:1"
         id="g2098"
         transform="matrix(0.38571429,0,0,-0.38571429,-67.5,225)"
         xml:space="preserve"
         stroke-miterlimit="10.433"
         font-style="normal"
         font-variant="normal"
         font-weight="normal"
         font-stretch="normal"
         font-size-adjust="none"
         letter-spacing="normal"
         word-spacing="normal"><path
           style="fill:#000000;stroke-width:0"
           inkscape:connector-curvature="0"
           d="m 478.37,415.46 -0.05,0.34 -0.06,0.36 -0.07,0.4 -0.09,0.42 -0.1,0.45 -0.11,0.48 -0.13,0.49 -0.15,0.51 -0.16,0.53 -0.18,0.53 -0.19,0.54 -0.22,0.55 -0.23,0.55 -0.25,0.55 -0.27,0.54 -0.3,0.54 -0.31,0.53 -0.34,0.52 -0.36,0.49 -0.38,0.49 -0.4,0.46 -0.43,0.43 -0.46,0.41 -0.48,0.38 -0.51,0.34 -0.53,0.31 -0.28,0.14 -0.28,0.13 -0.29,0.11 -0.3,0.11 -0.31,0.1 -0.31,0.08 -0.32,0.08 -0.33,0.06 -0.33,0.04 -0.35,0.04 -0.35,0.02 -0.36,0.01 c -7.02,0 -11.2,-6.98 -11.2,-9.02 0,-0.75 0.7,-0.75 1.14,-0.75 0.55,0 0.95,0 1.2,0.6 1.1,3.19 5.23,3.69 7.82,3.69 2.74,0 6.03,-0.65 7.72,-3.04 1.34,-2 1.74,-6.08 1.74,-8.12 0,-1.99 -0.1,-2.34 -0.44,-3.39 -1.35,-4.03 -2.89,-9.42 -2.89,-11.26 0,-0.39 0,-1.74 1.19,-1.74 1.2,0 1.85,1.84 2.04,2.44 0.4,1.19 1.7,5.68 2.29,10.81 0.05,0.6 0.05,0.7 0.2,1.1 1.35,3.73 3.74,9.51 7.28,15.89 0.3,0.54 0.84,1.49 0.84,1.69 0,0.7 -0.69,0.7 -1.14,0.7 -0.5,0 -0.7,0 -0.95,-0.2 -0.1,-0.1 -2.74,-4.44 -6.27,-12.46 z"
           id="path2094" /><path
           style="fill:#000000;stroke-width:0"
           inkscape:connector-curvature="0"
           d="m 499.89,404.81 0.14,1.12 2.37,9.45 c 0.28,1.08 0.31,1.18 1.78,1.18 h 4.08 c 3.24,0 5.26,-0.98 5.26,-3.45 0,-1.08 -0.42,-3.84 -2.16,-5.41 -1.25,-1.11 -3.24,-1.77 -5.75,-1.77 h -5.58 l -0.14,-1.12 h 6.31 c 5.89,0 10.88,3.76 10.88,7.57 0,2.92 -2.86,5.44 -7.63,5.44 h -12.21 c -0.7,0 -1.12,0 -1.12,-0.77 0,-0.49 0.39,-0.49 1.15,-0.49 0.56,0 0.7,0 1.33,-0.07 0.7,-0.07 0.77,-0.14 0.77,-0.49 0,-0.07 0,-0.24 -0.14,-0.77 l -4.61,-18.37 c -0.34,-1.36 -0.38,-1.61 -3.1,-1.61 -0.63,0 -1.04,0 -1.04,-0.76 0,-0.04 0,-0.49 0.56,-0.49 h 9.16 c 0.21,0 0.74,0 0.74,0.77 0,0.48 -0.42,0.48 -1.12,0.48 -0.03,0 -0.7,0 -1.32,0.07 -0.8,0.07 -0.8,0.18 -0.8,0.53 0,0.03 0,0.24 0.13,0.76 z"
           id="path2096" /></g>    </g>
    <g
       transform="translate(13.739607,737.70384)"
       id="g3042">
      <g
         style="font-style:normal;font-variant:normal;font-weight:normal;font-stretch:normal;letter-spacing:normal;word-spacing:normal;text-anchor:start;fill:none;fill-opacity:1;fill-rule:evenodd;stroke:#000000;stroke-linecap:butt;stroke-linejoin:miter;stroke-miterlimit:10.43299961;stroke-dasharray:none;stroke-dashoffset:0;stroke-opacity:1"
         id="g3040"
         transform="matrix(0.38571429,0,0,-0.38571429,-67.5,225)"
         xml:space="preserve"
         stroke-miterlimit="10.433"
         font-style="normal"
         font-variant="normal"
         font-weight="normal"
         font-stretch="normal"
         font-size-adjust="none"
         letter-spacing="normal"
         word-spacing="normal"><path
           style="fill:#000000;stroke-width:0"
           inkscape:connector-curvature="0"
           d="m 471.09,421.74 0.2,1.3 3.39,13.55 c 0.45,1.74 0.55,1.89 2.69,1.89 h 4.78 c 4.14,0 6.78,-1.35 6.78,-4.78 0,-1.95 -1,-6.23 -2.94,-8.02 -2.49,-2.25 -5.48,-2.64 -7.67,-2.64 h -7.03 l -0.2,-1.3 h 8.47 c 7.08,0 14,5.18 14,10.76 0,3.84 -3.29,7.52 -9.81,7.52 h -16.14 c -0.95,0 -1.5,0 -1.5,-0.95 0,-0.59 0.45,-0.59 1.45,-0.59 0.64,0 1.54,-0.05 2.14,-0.1 0.8,-0.1 1.09,-0.25 1.09,-0.8 0,-0.2 -0.04,-0.35 -0.2,-0.94 l -6.67,-26.75 c -0.5,-1.95 -0.6,-2.35 -4.53,-2.35 -0.85,0 -1.4,0 -1.4,-0.94 0,-0.6 0.6,-0.6 0.75,-0.6 h 12.75 c 0.35,0 1,0 1,1 0,0.54 -0.45,0.54 -1.4,0.54 -1.84,0 -3.23,0 -3.23,0.9 0,0.3 0.1,0.55 0.14,0.85 z"
           id="path3038" /></g>    </g>
    <g
       id="g5498"
       transform="translate(48.488296,755.90059)">
      <g
         word-spacing="normal"
         letter-spacing="normal"
         font-size-adjust="none"
         font-stretch="normal"
         font-weight="normal"
         font-variant="normal"
         font-style="normal"
         stroke-miterlimit="10.433"
         xml:space="preserve"
         transform="matrix(0.38571429,0,0,-0.38571429,-67.5,225)"
         id="g5496"
         style="font-style:normal;font-variant:normal;font-weight:normal;font-stretch:normal;letter-spacing:normal;word-spacing:normal;text-anchor:start;fill:none;fill-opacity:1;fill-rule:evenodd;stroke:#000000;stroke-linecap:butt;stroke-linejoin:miter;stroke-miterlimit:10.43299961;stroke-dasharray:none;stroke-dashoffset:0;stroke-opacity:1"><path
           id="path5492"
           d="m 482.4,424.18 0.02,0.08 0.02,0.07 0.01,0.07 0.02,0.06 0.01,0.06 0.01,0.06 0.02,0.06 0.01,0.05 0.01,0.06 0.01,0.05 0.01,0.04 v 0.05 l 0.01,0.04 0.01,0.05 v 0.04 l 0.01,0.03 v 0.04 l 0.01,0.04 v 0.03 0.03 0.03 l 0.01,0.03 v 0.03 0.02 0.03 0.02 0.02 0.03 0.04 0.04 c 0,1.59 -1.3,2.19 -2.34,2.19 -1,0 -1.89,-0.45 -2.54,-1.2 -0.7,0.75 -2.34,2.05 -5.28,2.05 l 0.1,-1.8 c 3.08,0 4.18,-2.44 4.18,-2.79 0,-0.1 0,-0.2 -0.15,-0.75 l -2.89,-11.55 c -0.2,-0.7 -0.2,-0.9 -0.79,-1.45 -2.64,-2.39 -4.98,-2.39 -5.43,-2.39 -1.94,0 -3.39,1.1 -3.39,3.74 0,2.39 1.64,8.37 2.39,10.21 1.74,4.28 4.58,4.98 6.08,4.98 l -0.1,1.8 c -8.82,0 -14,-7.88 -14,-14.4 0,-5.88 4.44,-8.12 8.72,-8.12 2.59,0 4.58,1 5.48,1.54 -0.3,-1.24 -0.6,-2.49 -0.95,-3.73 -0.35,-1.45 -0.7,-2.94 -2.44,-4.34 -2.09,-1.74 -3.73,-1.74 -5.08,-1.74 -1.2,0 -2.09,0 -3.39,0.2 1.45,1.05 1.55,2.69 1.55,2.89 0,1.09 -0.85,2.29 -2.49,2.29 -1.65,0 -3.54,-1.4 -3.54,-3.68 0,-3.29 4.38,-3.49 7.92,-3.49 4.48,0 11.36,1.04 12.85,7.02 z"
           inkscape:connector-curvature="0"
           style="fill:#000000;stroke-width:0" /><path
           id="path5494"
           d="m 496.89,404.81 0.14,1.12 2.37,9.45 c 0.28,1.08 0.31,1.18 1.78,1.18 h 4.08 c 3.24,0 5.26,-0.98 5.26,-3.45 0,-1.08 -0.41,-3.84 -2.16,-5.41 -1.25,-1.11 -3.24,-1.77 -5.75,-1.77 h -5.58 l -0.14,-1.12 h 6.31 c 5.89,0 10.88,3.76 10.88,7.57 0,2.92 -2.86,5.44 -7.63,5.44 h -12.21 c -0.7,0 -1.12,0 -1.12,-0.77 0,-0.49 0.39,-0.49 1.15,-0.49 0.56,0 0.7,0 1.33,-0.07 0.7,-0.07 0.77,-0.14 0.77,-0.49 0,-0.07 0,-0.24 -0.14,-0.77 l -4.61,-18.37 c -0.34,-1.36 -0.38,-1.61 -3.1,-1.61 -0.63,0 -1.04,0 -1.04,-0.76 0,-0.04 0,-0.49 0.56,-0.49 h 9.16 c 0.21,0 0.74,0 0.74,0.77 0,0.48 -0.42,0.48 -1.12,0.48 -0.03,0 -0.7,0 -1.32,0.07 -0.8,0.07 -0.8,0.18 -0.8,0.53 0,0.03 0,0.24 0.13,0.76 z"
           inkscape:connector-curvature="0"
           style="fill:#000000;stroke-width:0" /></g>    </g>
    <g
       transform="translate(43.256166,715.0645)"
       id="g468">
      <g
         style="font-style:normal;font-variant:normal;font-weight:normal;font-stretch:normal;letter-spacing:normal;word-spacing:normal;text-anchor:start;fill:none;fill-opacity:1;fill-rule:evenodd;stroke:#000000;stroke-linecap:butt;stroke-linejoin:miter;stroke-miterlimit:10.43299961;stroke-dasharray:none;stroke-dashoffset:0;stroke-opacity:1"
         id="g466"
         transform="matrix(0.38571429,0,0,-0.38571429,-67.5,225)"
         xml:space="preserve"
         stroke-miterlimit="10.433"
         font-style="normal"
         font-variant="normal"
         font-weight="normal"
         font-stretch="normal"
         font-size-adjust="none"
         letter-spacing="normal"
         word-spacing="normal"><polygon
           style="fill:#000000;stroke-width:0"
           points="479.08,434.8 472.45,441.57 465.78,434.8 466.68,433.9 472.45,438.98 478.18,433.9 "
           id="polygon460" /><path
           style="fill:#000000;stroke-width:0"
           inkscape:connector-curvature="0"
           d="m 484.04,421.79 0.04,0.13 0.03,0.14 0.04,0.15 0.03,0.14 0.04,0.15 0.04,0.16 0.08,0.31 0.08,0.33 0.08,0.32 0.08,0.32 0.03,0.16 0.04,0.15 0.04,0.15 0.03,0.15 0.03,0.14 0.03,0.14 0.03,0.14 0.03,0.12 0.03,0.12 0.02,0.12 0.03,0.11 0.01,0.09 0.02,0.09 0.02,0.09 0.01,0.07 0.01,0.06 v 0.05 0.04 c 0,1.04 -0.79,2.19 -2.34,2.19 -0.8,0 -2.64,-0.45 -3.29,-2.64 -0.2,-0.7 -2.44,-9.72 -2.84,-11.36 -0.3,-1.15 -0.64,-2.59 -0.74,-3.49 -0.9,-1.19 -2.84,-3.24 -5.39,-3.24 -2.93,0 -2.98,2.5 -2.98,3.64 0,3.04 1.54,6.93 2.94,10.51 0.49,1.3 0.64,1.64 0.64,2.49 0,2.89 -2.88,4.49 -5.63,4.49 -5.27,0 -7.77,-6.78 -7.77,-7.77 0,-0.7 0.75,-0.7 1.2,-0.7 0.6,0 0.94,0 1.14,0.65 1.65,5.52 4.34,6.02 5.14,6.02 0.34,0 0.84,0 0.84,-1.04 0,-1.15 -0.59,-2.54 -0.79,-3.14 -2.1,-5.23 -3.04,-8.02 -3.04,-10.46 0,-5.68 4.98,-6.48 7.92,-6.48 1.44,0 3.63,0.2 6.32,2.74 1.6,-2.44 4.49,-2.74 5.68,-2.74 1.84,0 3.29,1.05 4.34,2.84 1.24,1.99 1.89,4.68 1.89,4.93 0,0.7 -0.75,0.7 -1.19,0.7 -0.56,0 -0.75,0 -1,-0.25 -0.1,-0.1 -0.1,-0.2 -0.4,-1.44 -1,-3.89 -2.09,-4.99 -3.39,-4.99 -0.75,0 -1.14,0.5 -1.14,1.85 0,0.85 0.19,1.64 0.69,3.64 0.35,1.39 0.85,3.38 1.1,4.48 z"
           id="path462" /><path
           style="fill:#000000;stroke-width:0"
           inkscape:connector-curvature="0"
           d="m 500.89,409.81 0.14,1.12 2.37,9.45 c 0.28,1.08 0.31,1.18 1.78,1.18 h 4.08 c 3.24,0 5.26,-0.98 5.26,-3.45 0,-1.08 -0.42,-3.84 -2.16,-5.41 -1.25,-1.11 -3.24,-1.77 -5.75,-1.77 h -5.58 l -0.14,-1.12 h 6.31 c 5.89,0 10.88,3.76 10.88,7.57 0,2.92 -2.86,5.44 -7.63,5.44 h -12.21 c -0.7,0 -1.12,0 -1.12,-0.77 0,-0.49 0.39,-0.49 1.15,-0.49 0.56,0 0.7,0 1.33,-0.07 0.7,-0.07 0.77,-0.14 0.77,-0.49 0,-0.07 0,-0.24 -0.14,-0.77 l -4.61,-18.37 c -0.34,-1.36 -0.38,-1.61 -3.1,-1.61 -0.63,0 -1.04,0 -1.04,-0.76 0,-0.04 0,-0.49 0.56,-0.49 h 9.16 c 0.21,0 0.74,0 0.74,0.77 0,0.48 -0.42,0.48 -1.12,0.48 -0.03,0 -0.7,0 -1.32,0.07 -0.8,0.07 -0.8,0.18 -0.8,0.53 0,0.03 0,0.24 0.13,0.76 z"
           id="path464" /></g>    </g>
    <text
       id="text5096"
       y="802.43048"
       x="214.51794"
       style="font-style:normal;font-variant:normal;font-weight:normal;font-stretch:normal;line-height:0%;font-family:'TG Pagella Math';-inkscape-font-specification:'TG Pagella Math';letter-spacing:0px;word-spacing:0px;fill:#000000;fill-opacity:1;stroke:none;stroke-width:1px;stroke-linecap:butt;stroke-linejoin:miter;stroke-opacity:1"
       xml:space="preserve"><tspan
         style="font-style:normal;font-variant:normal;font-weight:normal;font-stretch:normal;font-size:10px;line-height:0;font-family:sans-serif;-inkscape-font-specification:sans-serif"
         y="802.43048"
         x="214.51794"
         id="tspan5098"
         sodipodi:role="line">Earth's surface</tspan></text>
    <text
       id="text5096-3"
       y="1034.3307"
       x="200.29321"
       style="font-style:normal;font-variant:normal;font-weight:normal;font-stretch:normal;line-height:0%;font-family:'TG Pagella Math';-inkscape-font-specification:'TG Pagella Math';letter-spacing:0px;word-spacing:0px;fill:#000000;fill-opacity:1;stroke:none;stroke-width:1px;stroke-linecap:butt;stroke-linejoin:miter;stroke-opacity:1"
       xml:space="preserve"><tspan
         id="tspan5122"
         style="font-style:normal;font-variant:normal;font-weight:normal;font-stretch:normal;font-size:10px;line-height:0;font-family:sans-serif;-inkscape-font-specification:sans-serif"
         y="1034.3307"
         x="200.29321"
         sodipodi:role="line">Reference ellipsoid</tspan></text>
    <text
       id="text5096-3-2"
       y="910.63214"
       x="262.04532"
       style="font-style:normal;font-variant:normal;font-weight:normal;font-stretch:normal;line-height:0%;font-family:'TG Pagella Math';-inkscape-font-specification:'TG Pagella Math';letter-spacing:0px;word-spacing:0px;fill:#000000;fill-opacity:1;stroke:none;stroke-width:1px;stroke-linecap:butt;stroke-linejoin:miter;stroke-opacity:1"
       xml:space="preserve"><tspan
         id="tspan5122-9"
         style="font-style:normal;font-variant:normal;font-weight:normal;font-stretch:normal;font-size:10px;line-height:0;font-family:sans-serif;-inkscape-font-specification:sans-serif"
         y="910.63214"
         x="262.04532"
         sodipodi:role="line">Geoid</tspan></text>
    <path
       sodipodi:nodetypes="cc"
       inkscape:connector-curvature="0"
       inkscape:original-d="m 145.25855,1066.0842 -0.41423,-50.5702"
       inkscape:path-effect="#path-effect3761-2-5-2-1-8-9"
       id="path3759-4-6-4-7-2-4"
       d="m 145.25855,1066.0842 -0.41423,-50.5702"
       style="fill:none;stroke:#000000;stroke-width:1.5;stroke-linecap:butt;stroke-linejoin:bevel;stroke-miterlimit:4;stroke-dasharray:none;stroke-opacity:1;marker-start:url(#Arrow2Mstart-54);marker-end:none" />
    <ellipse
       ry="2.4817522"
       rx="2.4817519"
       cy="1015.3553"
       cx="144.89621"
       id="path4047-1-0-5-7-4-9"
       style="fill:#000000;fill-opacity:1;stroke:#000000;stroke-width:0.87149602;stroke-linejoin:miter;stroke-miterlimit:4;stroke-dasharray:none;stroke-dashoffset:0;stroke-opacity:1" />
    <g
       id="g6249"
       transform="translate(-5.475392,822.59549)">
      <g
         word-spacing="normal"
         letter-spacing="normal"
         font-size-adjust="none"
         font-stretch="normal"
         font-weight="normal"
         font-variant="normal"
         font-style="normal"
         stroke-miterlimit="10.433"
         xml:space="preserve"
         transform="matrix(0.4285714,0,0,-0.4285714,-74.999996,282.22441)"
         id="g6251"
         style="font-style:normal;font-variant:normal;font-weight:normal;font-stretch:normal;letter-spacing:normal;word-spacing:normal;text-anchor:start;fill:none;fill-opacity:1;fill-rule:evenodd;stroke:#000000;stroke-linecap:butt;stroke-linejoin:miter;stroke-miterlimit:10.43299961;stroke-dasharray:none;stroke-dashoffset:0;stroke-opacity:1"><path
           id="path6253"
           d="m 477.82,406.3 0.72,0.29 0.72,0.33 0.71,0.36 0.71,0.39 0.7,0.42 0.69,0.45 0.68,0.49 0.68,0.5 0.65,0.54 0.65,0.56 0.63,0.59 0.61,0.61 0.6,0.64 0.57,0.66 0.56,0.68 0.54,0.7 0.51,0.72 0.49,0.73 0.46,0.76 0.44,0.77 0.41,0.79 0.38,0.8 0.35,0.82 0.32,0.83 0.28,0.84 0.26,0.85 0.21,0.87 0.18,0.87 0.15,0.88 0.1,0.89 0.06,0.89 0.02,0.9 c 0,8.02 -5.28,13.4 -12.7,13.4 l -0.3,-1.25 c 4.98,0 8.62,-3.88 8.62,-10.56 0,-4.98 -2.54,-16.63 -10.91,-21.32 -0.25,1.74 -0.75,5.38 -4.39,5.38 v -1.09 c 2.1,0 3.04,-1.2 3.04,-4.24 0,-0.74 -0.04,-0.79 -0.54,-0.99 -1.3,-0.55 -2.79,-0.9 -4.19,-0.9 v 0 c -0.7,0 -2.29,0 -2.29,2.14 0,2 1.89,3.99 3.98,3.99 v 1.09 c -2.63,0 -5.07,-2.49 -5.07,-5.08 0,-0.99 0.29,-1.54 0.29,-1.59 v 0 c -3.88,1.54 -5.58,5.43 -5.58,9.91 0,3.44 1.3,10.51 5.09,15.89 3.63,5.08 8.31,7.37 11.95,7.37 l 0.3,1.25 c -10.76,0 -21.72,-11.31 -21.72,-22.92 0,-8.27 5.58,-13.3 12.75,-13.3 1.25,0 2.94,0.2 4.88,0.75 -0.19,-3.09 -0.19,-3.19 -0.19,-3.83 0,-1.6 0,-5.48 4.13,-5.48 5.93,0 8.32,9.11 8.32,9.66 0,0.35 -0.35,0.5 -0.55,0.5 -0.4,0 -0.5,-0.25 -0.6,-0.55 -1.19,-3.54 -4.08,-4.78 -5.82,-4.78 -2.3,0 -3.04,1.34 -3.54,5.13 z"
           inkscape:connector-curvature="0"
           style="fill:#000000;stroke-width:0" /><path
           id="path6255"
           d="m 505.11,440.46 0.03,0.05 0.02,0.05 0.02,0.06 0.03,0.05 0.02,0.04 0.02,0.05 0.01,0.04 0.02,0.05 0.01,0.04 0.02,0.04 0.01,0.04 0.01,0.04 0.02,0.03 0.01,0.04 0.01,0.03 v 0.04 l 0.01,0.03 0.01,0.03 v 0.03 l 0.01,0.03 0.01,0.03 v 0.03 0.02 l 0.01,0.03 v 0.05 0.05 l 0.01,0.05 v 0.04 c 0,1.09 -0.98,1.92 -2.06,1.92 -1.33,0 -1.75,-1.08 -1.92,-1.64 l -4.6,-15.1 c -0.04,-0.07 -0.18,-0.52 -0.18,-0.55 0,-0.42 1.08,-0.77 1.37,-0.77 0.24,0 0.27,0.07 0.52,0.59 z"
           inkscape:connector-curvature="0"
           style="fill:#000000;stroke-width:0" /></g>    </g>
    <path
       sodipodi:nodetypes="cc"
       inkscape:connector-curvature="0"
       inkscape:original-d="M 155.87783,976.61769 145.27374,909.62198"
       inkscape:path-effect="#path-effect3761-2-5-2-1-1-7"
       id="path3759-4-6-4-7-7-27"
       d="M 155.87783,976.61769 145.27374,909.62198"
       style="fill:none;stroke:#000000;stroke-width:1.5;stroke-linecap:butt;stroke-linejoin:bevel;stroke-miterlimit:4;stroke-dasharray:none;stroke-opacity:1;marker-start:url(#Arrow2Mstart-9);marker-end:none" />
    <g
       transform="translate(36.649995,838.49317)"
       id="g6744">
      <g
         style="font-style:normal;font-variant:normal;font-weight:normal;font-stretch:normal;letter-spacing:normal;word-spacing:normal;text-anchor:start;fill:none;fill-opacity:1;fill-rule:evenodd;stroke:#000000;stroke-linecap:butt;stroke-linejoin:miter;stroke-miterlimit:10.43299961;stroke-dasharray:none;stroke-dashoffset:0;stroke-opacity:1"
         word-spacing="normal"
         letter-spacing="normal"
         font-size-adjust="none"
         font-stretch="normal"
         font-weight="normal"
         font-variant="normal"
         font-style="normal"
         stroke-miterlimit="10.433"
         xml:space="preserve"
         transform="matrix(0.4285714,0,0,-0.4285714,-74.999996,282.22441)"
         id="g6746"><path
           style="fill:#000000;stroke-width:0"
           inkscape:connector-curvature="0"
           id="path6748"
           d="m 482.4,424.18 0.02,0.08 0.02,0.07 0.01,0.07 0.02,0.06 0.01,0.06 0.01,0.06 0.02,0.06 0.01,0.05 0.01,0.06 0.01,0.05 0.01,0.04 v 0.05 l 0.01,0.04 0.01,0.05 v 0.04 l 0.01,0.03 v 0.04 l 0.01,0.04 v 0.03 0.03 0.03 l 0.01,0.03 v 0.03 0.02 0.03 0.02 0.02 0.03 0.04 0.04 c 0,1.59 -1.3,2.19 -2.34,2.19 -1,0 -1.89,-0.45 -2.54,-1.2 -0.7,0.75 -2.34,2.05 -5.28,2.05 l 0.1,-1.8 c 3.08,0 4.18,-2.44 4.18,-2.79 0,-0.1 0,-0.2 -0.15,-0.75 l -2.89,-11.55 c -0.2,-0.7 -0.2,-0.9 -0.79,-1.45 -2.64,-2.39 -4.98,-2.39 -5.43,-2.39 -1.94,0 -3.39,1.1 -3.39,3.74 0,2.39 1.64,8.37 2.39,10.21 1.74,4.28 4.58,4.98 6.08,4.98 l -0.1,1.8 c -8.82,0 -14,-7.88 -14,-14.4 0,-5.88 4.44,-8.12 8.72,-8.12 2.59,0 4.58,1 5.48,1.54 -0.3,-1.24 -0.6,-2.49 -0.95,-3.73 -0.35,-1.45 -0.7,-2.94 -2.44,-4.34 -2.09,-1.74 -3.73,-1.74 -5.08,-1.74 -1.2,0 -2.09,0 -3.39,0.2 1.45,1.05 1.55,2.69 1.55,2.89 0,1.09 -0.85,2.29 -2.49,2.29 -1.65,0 -3.54,-1.4 -3.54,-3.68 0,-3.29 4.38,-3.49 7.92,-3.49 4.48,0 11.36,1.04 12.85,7.02 z" /><path
           style="fill:#000000;stroke-width:0"
           inkscape:connector-curvature="0"
           id="path6750"
           d="m 501.21,391.91 0.01,-0.43 0.02,-0.43 0.02,-0.21 0.02,-0.21 0.02,-0.2 0.03,-0.21 0.04,-0.2 0.04,-0.2 0.04,-0.2 0.06,-0.19 0.06,-0.18 0.07,-0.18 0.07,-0.18 0.09,-0.17 0.09,-0.16 0.1,-0.16 0.11,-0.15 0.12,-0.13 0.13,-0.14 0.14,-0.12 0.15,-0.11 0.16,-0.1 0.18,-0.1 0.18,-0.08 0.2,-0.07 0.1,-0.03 0.1,-0.03 0.11,-0.02 0.11,-0.02 0.12,-0.02 0.12,-0.02 0.12,-0.01 0.13,-0.01 h 0.12 l 0.14,-0.01 c 4.22,0 6.24,6 6.24,6.77 0,0.24 -0.21,0.49 -0.49,0.49 -0.35,0 -0.45,-0.31 -0.49,-0.45 -0.83,-2.45 -3.14,-3.14 -4.32,-3.14 -1.4,0 -2.13,0.59 -2.76,3.38 6.21,2.2 11.2,8.37 11.2,14.54 0,5.47 -3.95,9.69 -10.12,9.69 -8.33,0 -16.38,-7.81 -16.38,-15.65 0,-5.62 4.14,-9.56 10.14,-9.56 l 0.25,1.12 c -0.56,0 -1.78,0 -1.78,1.36 h -0.98 c 0,-0.63 0.04,-0.66 0.14,-0.91 v 0 c -1.81,0.63 -4.39,2.44 -4.39,7.11 0,2.23 0.73,6.88 3.91,10.81 2.19,2.69 5.57,4.61 8.82,4.61 3.8,0 7,-2.55 7,-7.64 0,-3.49 -1.7,-10.98 -8.09,-14.15 -0.55,2.19 -1.46,3.66 -3.52,3.66 -1.95,0 -3.87,-1.65 -3.87,-3.49 h 0.98 c 0,1.32 1.43,2.51 2.89,2.51 1.26,0 2.2,-0.56 2.3,-3.24 v 0 c -0.76,-0.28 -2.05,-0.63 -3.41,-0.63 l -0.25,-1.12 c 0.66,0 1.85,0.04 3.66,0.49 z" /><path
           style="fill:#000000;stroke-width:0"
           inkscape:connector-curvature="0"
           id="path6752"
           d="m 524.97,415.58 v 0 0.01 0 0 l 0.01,0.01 v 0.01 l 0.01,0.01 0.01,0.02 0.01,0.02 0.01,0.02 v 0.02 l 0.01,0.02 0.02,0.02 0.01,0.03 0.01,0.03 0.01,0.02 0.01,0.03 0.01,0.04 0.01,0.03 0.01,0.03 0.01,0.03 0.01,0.04 0.01,0.03 0.01,0.04 0.01,0.04 0.01,0.03 0.01,0.04 v 0.04 l 0.01,0.03 0.01,0.04 v 0.04 0.03 0.04 l 0.01,0.03 c 0,0.9 -0.8,1.47 -1.55,1.47 -1.02,0 -1.29,-0.77 -1.42,-1.14 l -3.84,-10.79 c -0.09,-0.29 -0.09,-0.37 -0.09,-0.4 0,-0.39 1.04,-0.64 1.07,-0.64 0.22,0 0.27,0.12 0.42,0.42 z" /></g>    </g>
    <g
       id="g7196"
       transform="translate(28.384935,900.29774)">
      <g
         id="g7198"
         transform="matrix(0.4285714,0,0,-0.4285714,-74.999996,282.22441)"
         xml:space="preserve"
         stroke-miterlimit="10.433"
         font-style="normal"
         font-variant="normal"
         font-weight="normal"
         font-stretch="normal"
         font-size-adjust="none"
         letter-spacing="normal"
         word-spacing="normal"
         style="font-style:normal;font-variant:normal;font-weight:normal;font-stretch:normal;letter-spacing:normal;word-spacing:normal;text-anchor:start;fill:none;fill-opacity:1;fill-rule:evenodd;stroke:#000000;stroke-linecap:butt;stroke-linejoin:miter;stroke-miterlimit:10.43299961;stroke-dasharray:none;stroke-dashoffset:0;stroke-opacity:1"><path
           d="m 477.82,406.3 0.72,0.29 0.72,0.33 0.71,0.36 0.71,0.39 0.7,0.42 0.69,0.45 0.68,0.49 0.68,0.5 0.65,0.54 0.65,0.56 0.63,0.59 0.61,0.61 0.6,0.64 0.57,0.66 0.56,0.68 0.54,0.7 0.51,0.72 0.49,0.73 0.46,0.76 0.44,0.77 0.41,0.79 0.38,0.8 0.35,0.82 0.32,0.83 0.28,0.84 0.26,0.85 0.21,0.87 0.18,0.87 0.15,0.88 0.1,0.89 0.06,0.89 0.02,0.9 c 0,8.02 -5.28,13.4 -12.7,13.4 l -0.3,-1.25 c 4.98,0 8.62,-3.88 8.62,-10.56 0,-4.98 -2.54,-16.63 -10.91,-21.32 -0.25,1.74 -0.75,5.38 -4.39,5.38 v -1.09 c 2.1,0 3.04,-1.2 3.04,-4.24 0,-0.74 -0.04,-0.79 -0.54,-0.99 -1.3,-0.55 -2.79,-0.9 -4.19,-0.9 v 0 c -0.7,0 -2.29,0 -2.29,2.14 0,2 1.89,3.99 3.98,3.99 v 1.09 c -2.63,0 -5.07,-2.49 -5.07,-5.08 0,-0.99 0.29,-1.54 0.29,-1.59 v 0 c -3.88,1.54 -5.58,5.43 -5.58,9.91 0,3.44 1.3,10.51 5.09,15.89 3.63,5.08 8.31,7.37 11.95,7.37 l 0.3,1.25 c -10.76,0 -21.72,-11.31 -21.72,-22.92 0,-8.27 5.58,-13.3 12.75,-13.3 1.25,0 2.94,0.2 4.88,0.75 -0.19,-3.09 -0.19,-3.19 -0.19,-3.83 0,-1.6 0,-5.48 4.13,-5.48 5.93,0 8.32,9.11 8.32,9.66 0,0.35 -0.35,0.5 -0.55,0.5 -0.4,0 -0.5,-0.25 -0.6,-0.55 -1.19,-3.54 -4.08,-4.78 -5.82,-4.78 -2.3,0 -3.04,1.34 -3.54,5.13 z"
           id="path7200"
           inkscape:connector-curvature="0"
           style="fill:#000000;stroke-width:0" /></g>    </g>
    <g
       transform="translate(-7.0842965,932.49752)"
       id="g7637">
      <g
         style="font-style:normal;font-variant:normal;font-weight:normal;font-stretch:normal;letter-spacing:normal;word-spacing:normal;text-anchor:start;fill:none;fill-opacity:1;fill-rule:evenodd;stroke:#000000;stroke-linecap:butt;stroke-linejoin:miter;stroke-miterlimit:10.43299961;stroke-dasharray:none;stroke-dashoffset:0;stroke-opacity:1"
         word-spacing="normal"
         letter-spacing="normal"
         font-size-adjust="none"
         font-stretch="normal"
         font-weight="normal"
         font-variant="normal"
         font-style="normal"
         stroke-miterlimit="10.433"
         xml:space="preserve"
         transform="matrix(0.4285714,0,0,-0.4285714,-74.999996,282.22441)"
         id="g7639"><path
           style="fill:#000000;stroke-width:0"
           inkscape:connector-curvature="0"
           id="path7641"
           d="m 478.37,415.46 -0.05,0.34 -0.06,0.36 -0.07,0.4 -0.09,0.42 -0.1,0.45 -0.11,0.48 -0.13,0.49 -0.15,0.51 -0.16,0.53 -0.18,0.53 -0.19,0.54 -0.22,0.55 -0.23,0.55 -0.25,0.55 -0.27,0.54 -0.3,0.54 -0.31,0.53 -0.34,0.52 -0.36,0.49 -0.38,0.49 -0.4,0.46 -0.43,0.43 -0.46,0.41 -0.48,0.38 -0.51,0.34 -0.53,0.31 -0.28,0.14 -0.28,0.13 -0.29,0.11 -0.3,0.11 -0.31,0.1 -0.31,0.08 -0.32,0.08 -0.33,0.06 -0.33,0.04 -0.35,0.04 -0.35,0.02 -0.36,0.01 c -7.02,0 -11.2,-6.98 -11.2,-9.02 0,-0.75 0.7,-0.75 1.14,-0.75 0.55,0 0.95,0 1.2,0.6 1.1,3.19 5.23,3.69 7.82,3.69 2.74,0 6.03,-0.65 7.72,-3.04 1.34,-2 1.74,-6.08 1.74,-8.12 0,-1.99 -0.1,-2.34 -0.44,-3.39 -1.35,-4.03 -2.89,-9.42 -2.89,-11.26 0,-0.39 0,-1.74 1.19,-1.74 1.2,0 1.85,1.84 2.04,2.44 0.4,1.19 1.7,5.68 2.29,10.81 0.05,0.6 0.05,0.7 0.2,1.1 1.35,3.73 3.74,9.51 7.28,15.89 0.3,0.54 0.84,1.49 0.84,1.69 0,0.7 -0.69,0.7 -1.14,0.7 -0.5,0 -0.7,0 -0.95,-0.2 -0.1,-0.1 -2.74,-4.44 -6.27,-12.46 z" /><path
           style="fill:#000000;stroke-width:0"
           inkscape:connector-curvature="0"
           id="path7643"
           d="m 504.21,391.91 0.01,-0.43 0.02,-0.43 0.02,-0.21 0.02,-0.21 0.02,-0.2 0.03,-0.21 0.04,-0.2 0.04,-0.2 0.04,-0.2 0.06,-0.19 0.06,-0.18 0.07,-0.18 0.07,-0.18 0.09,-0.17 0.09,-0.16 0.1,-0.16 0.11,-0.15 0.12,-0.13 0.13,-0.14 0.14,-0.12 0.15,-0.11 0.16,-0.1 0.18,-0.1 0.18,-0.08 0.2,-0.07 0.1,-0.03 0.1,-0.03 0.11,-0.02 0.11,-0.02 0.12,-0.02 0.12,-0.02 0.12,-0.01 0.13,-0.01 h 0.12 l 0.14,-0.01 c 4.22,0 6.24,6 6.24,6.77 0,0.24 -0.21,0.49 -0.49,0.49 -0.35,0 -0.45,-0.31 -0.49,-0.45 -0.83,-2.45 -3.14,-3.14 -4.32,-3.14 -1.4,0 -2.13,0.59 -2.76,3.38 6.21,2.2 11.2,8.37 11.2,14.54 0,5.47 -3.94,9.69 -10.12,9.69 -8.33,0 -16.38,-7.81 -16.38,-15.65 0,-5.62 4.14,-9.56 10.14,-9.56 l 0.25,1.12 c -0.56,0 -1.78,0 -1.78,1.36 h -0.98 c 0,-0.63 0.04,-0.66 0.14,-0.91 v 0 c -1.81,0.63 -4.39,2.44 -4.39,7.11 0,2.23 0.73,6.88 3.91,10.81 2.19,2.69 5.57,4.61 8.82,4.61 3.8,0 7,-2.55 7,-7.64 0,-3.49 -1.7,-10.98 -8.09,-14.15 -0.55,2.19 -1.46,3.66 -3.52,3.66 -1.95,0 -3.87,-1.65 -3.87,-3.49 h 0.98 c 0,1.32 1.43,2.51 2.89,2.51 1.26,0 2.2,-0.56 2.3,-3.24 v 0 c -0.76,-0.28 -2.05,-0.63 -3.41,-0.63 l -0.25,-1.12 c 0.66,0 1.85,0.04 3.66,0.49 z" /></g>    </g>
  </g>
</svg>
